<svg width="52" height="52" viewBox="0 0 52 52" fill="none" xmlns="http://www.w3.org/2000/svg">
<circle cx="25.6514" cy="25.9541" r="25.6514" fill="white"/>
<path d="M24.7893 13.3501C27.7439 13.1475 30.6666 13.9788 33.0666 15.7173C35.4667 17.456 37.1742 19.9738 37.8996 22.8326C38.081 23.8139 38.1979 24.8063 38.2512 25.7984V38.5669L38.2619 38.5884H33.4406C31.9046 38.5884 30.4214 38.066 29.216 37.1167C28.0107 36.1674 27.1677 34.8337 26.8156 33.3404C26.8156 33.2978 26.7841 33.2658 26.7522 33.2339C26.7203 33.2126 26.6775 33.1911 26.635 33.1909C26.5923 33.1909 26.5488 33.2019 26.5168 33.2339C26.4851 33.2554 26.4639 33.2979 26.4533 33.3404C26.208 34.4176 25.6962 35.4205 24.9709 36.2525C24.2456 37.0844 23.3279 37.7347 22.3039 38.1294C21.472 38.4494 20.5758 38.6096 19.6799 38.5777C17.9411 38.5243 16.2767 37.82 15.0393 36.5826C13.8021 35.3452 13.0869 33.6922 13.0442 31.9536C13.0122 31.0577 13.1725 30.1616 13.4924 29.3296V29.2867C13.9191 28.2519 14.6444 27.3662 15.5725 26.7368C16.5005 26.1181 17.5999 25.7877 18.7199 25.7984H25.6213C25.7813 25.7983 25.9415 25.7341 26.0588 25.6167C26.176 25.4994 26.2395 25.3391 26.2395 25.1792C26.2394 25.0195 26.1758 24.8599 26.0588 24.7427C25.9415 24.6254 25.7813 24.5611 25.6213 24.5611H13.1086C13.4286 21.6169 14.7838 18.8855 16.9172 16.8374C19.0506 14.7896 21.8347 13.5528 24.7893 13.3501Z" fill="black"/>
</svg>
