<svg width="31" height="60" viewBox="0 0 31 60" fill="none" xmlns="http://www.w3.org/2000/svg">
<path d="M17.7452 10.5649C17.6534 10.5649 17.3964 10.5649 17.2036 9.64701C17.0476 9.32573 16.5611 8.316 16.3408 8.05898C16.2306 7.93047 16.047 7.90293 15.9093 7.90293C15.79 7.90293 15.6982 7.92129 15.6982 7.92129C14.7895 8.0039 14 8.0498 13.3024 8.0498C10.4751 8.0498 9.87849 7.37052 9.77752 6.95745C9.76834 6.92073 9.77752 6.88402 9.77752 6.8473C9.93357 6.36997 10.5669 5.80085 14.2112 5.69988C14.7436 5.68152 15.2484 5.68152 15.7166 5.68152C19.1221 5.68152 21.0681 6.07623 21.6464 6.88402C21.7015 6.95745 21.7015 7.04924 21.6464 7.12268C21.4812 7.36134 21.0865 7.49904 20.3889 7.53575C19.4067 7.60001 19.0395 8.09569 18.7274 8.54548C18.5805 8.74743 18.4428 8.94938 18.2501 9.07789C18.0298 9.24312 18.0298 9.45424 18.0665 9.79388C18.0849 10.0142 18.1124 10.2345 17.9839 10.4181C17.9013 10.5466 17.7911 10.5649 17.736 10.5649H17.7452Z" fill="white"/>
<path d="M15.7256 5.89262C19.1036 5.89262 20.9579 6.27816 21.4903 7.00333C21.3985 7.14102 21.1139 7.28789 20.3887 7.32461C18.8558 7.4164 18.6814 8.50875 18.1398 8.90346C17.5982 9.30735 18.0296 9.98663 17.8277 10.2895C17.8002 10.3263 17.7726 10.3446 17.7451 10.3446C17.5707 10.3446 17.4054 9.59191 17.4054 9.59191C17.4054 9.59191 16.7904 8.25172 16.4967 7.91209C16.3406 7.7285 16.0928 7.6826 15.9092 7.6826C15.7623 7.6826 15.6522 7.71014 15.6522 7.71014C14.7251 7.79276 13.954 7.82947 13.3023 7.82947C10.475 7.82947 10.0436 7.14102 9.97933 6.89318C10.1078 6.48928 10.7779 5.9936 14.2202 5.89262C14.7526 5.87427 15.2483 5.87427 15.7256 5.87427M15.7256 5.47955C15.2483 5.47955 14.7434 5.47955 14.211 5.49791C10.475 5.59889 9.77739 6.17719 9.58462 6.78302C9.55708 6.85646 9.55708 6.93907 9.58462 7.01251C9.73149 7.58163 10.4934 8.2609 13.3114 8.2609C14.0091 8.2609 14.8169 8.21501 15.6981 8.14157C15.7164 8.14157 15.7348 8.14157 15.7532 8.13239C15.7532 8.13239 15.8266 8.11403 15.9184 8.11403C15.9918 8.11403 16.1295 8.12321 16.1938 8.19665C16.359 8.38941 16.7721 9.1972 17.0199 9.73878C17.176 10.4548 17.4054 10.7761 17.7543 10.7761C17.8552 10.7761 18.0388 10.7485 18.1765 10.5374C18.3417 10.2987 18.3142 10.0233 18.2867 9.7755C18.2591 9.44504 18.2683 9.33489 18.3876 9.2431C18.5988 9.08705 18.7548 8.86674 18.9109 8.6648C19.2321 8.21501 19.5351 7.80194 20.4255 7.74686C21.1965 7.70096 21.6371 7.54491 21.8391 7.24199C21.9401 7.09512 21.9309 6.91154 21.8391 6.76467C21.4444 6.2139 20.3796 5.47955 15.744 5.47955H15.7256Z" fill="white"/>
<path d="M8.2662 26.0184C8.59666 26.3947 9.45762 26.435 9.79726 26.7104C10.9539 27.6283 11.669 27.4082 12.5961 27.4999C12.4033 32.4017 11.6316 46.19 11.6867 48.439C11.7601 51.2662 12.5312 56.8473 12.3843 57.9213C12.2558 58.8484 10.4107 58.9861 9.24496 58.9861C9.05219 58.9861 8.87778 58.9861 8.74009 58.9861C7.72118 58.9494 5.85777 58.83 5.91284 57.9764C5.96792 57.1227 7.87723 55.9844 8.10671 55.7091C8.3362 55.4337 8.28112 55.296 8.31784 54.8921C8.31784 54.8187 8.31784 53.8548 8.30866 52.3035C8.26276 46.4195 8.33964 31.3699 8.27538 26.0367M8 25.9999C7.9541 25.9999 7.89903 25.9999 7.85313 26.0275C7.85313 25.8531 7.6879 26.0917 7.85313 26.0275C7.91739 31.6361 7.84051 46.5113 7.88641 52.2943C7.90477 54.3964 7.90477 54.8095 7.90477 54.8646C7.90477 54.9472 7.89559 55.0298 7.88641 55.1032C7.88641 55.3235 7.87723 55.3327 7.78544 55.4428C7.73954 55.4887 7.54677 55.6356 7.38154 55.755C6.40853 56.4801 5.53649 57.1961 5.49059 57.9488C5.47223 58.2058 5.56403 58.4537 5.73844 58.6464C6.27084 59.2339 7.61103 59.3533 8.71255 59.39C8.85942 59.39 9.03383 59.39 9.23578 59.39C11.4572 59.39 12.6505 58.9126 12.7882 57.9672C12.8708 57.3522 12.6964 55.553 12.4945 53.4693C12.32 51.716 12.1273 49.7333 12.0906 48.4114C12.0355 46.1166 12.844 31.4379 13 27.4999C13 27.2796 12.8072 27.3127 12.5961 27.2852C11.8526 27.2118 10.6658 27.4179 9.5 26.4999C9.16954 26.2337 8.60584 26.4681 8.30292 26.1285C8.2203 26.0367 8.11015 25.9908 7.99082 25.9908L8 25.9999Z" fill="white"/>
<path d="M9.97908 6.9207C10.1443 7.44393 10.4656 7.90289 12.7237 7.90289C13.4672 7.90289 14.4219 7.857 15.6611 7.73767C15.6611 7.73767 15.7713 7.71013 15.9181 7.71013C16.1017 7.71013 16.3404 7.75602 16.5056 7.93961C16.7902 8.27007 17.4144 9.61944 17.4144 9.61944C17.4144 9.61944 17.5704 10.3721 17.754 10.3721C17.7815 10.3721 17.8091 10.3538 17.8366 10.3171C18.0386 10.0141 17.6071 9.3257 18.1487 8.93099C18.6995 8.52709 18.8647 7.44393 20.3977 7.35213C21.1228 7.30624 21.3982 7.16854 21.4992 7.03085C21.5359 7.08593 21.5634 7.14101 21.591 7.1869C21.9949 8.08648 24.4458 12.8689 24.4458 12.8689C24.4458 12.8689 26.0705 13.0433 27.9523 14.356C29.8341 15.6686 29.8891 18.606 29.9534 21.8188C30.0177 25.0316 30.5317 39.3331 30.5225 42.8396C30.5225 46.3461 30.1553 49.6507 30.1553 49.6507C30.036 49.9903 29.8524 50.1005 29.6688 50.1005C29.3476 50.1005 29.0171 49.7517 29.0171 49.7517C28.9161 50.3208 28.6866 50.5503 28.4663 50.5503C28.3011 50.5503 28.1451 50.4126 28.0624 50.2014C27.8697 49.7058 27.6677 47.2549 27.6677 47.2549C27.6677 47.2549 27.273 47.4109 26.9609 47.4109C26.759 47.4109 26.5937 47.3467 26.5937 47.1264C26.5937 46.5848 27.4566 46.0983 27.5576 45.3915C27.6677 44.6846 27.1262 35.8449 27.117 33.0268C27.1078 30.9248 26.9242 26.2341 26.8324 23.7649C26.7957 22.9204 26.7773 22.3329 26.7773 22.2044C26.7773 22.1493 26.7773 22.0942 26.7682 22.0575C26.7682 22.0575 26.7682 22.0575 26.7682 22.0483C26.7498 21.9382 26.7131 21.9106 26.6764 21.9106C26.6213 21.9106 26.5662 21.9841 26.5662 21.9841C26.3459 22.7735 23.9593 25.5915 23.9593 25.5915C23.9225 26.5921 23.6104 27.2255 23.2525 27.6294C22.72 28.2168 22.0959 28.3086 22.0959 28.3086C22.0959 28.3086 22.105 28.5198 22.1234 28.8778C22.1326 29.0797 22.1417 29.3276 22.1601 29.6213C22.2794 32.3476 22.5273 38.6079 22.4171 41.7381C22.2703 45.8137 22.7476 53.4601 22.7751 54.6167C22.8027 55.7641 23.2157 56.9942 22.9771 57.9856C22.7476 58.9769 20.5721 58.9494 20.058 58.9494C20.0305 58.9494 20.003 58.9494 19.9754 58.9494C19.3512 58.9494 17.4603 58.9219 17.4327 58.16C17.4144 57.3614 18.1304 56.7004 18.2956 56.5169C18.4608 56.3241 19.0575 55.8651 19.1401 55.4888C19.1676 55.3694 19.1585 54.8187 19.1401 53.9925C19.0942 52.2576 18.984 49.311 18.9749 46.6857C18.9565 43.372 18.5251 32.4944 18.3966 29.4928C18.3782 28.9971 18.369 28.7217 18.369 28.7217C17.7907 28.7217 17.24 28.5381 16.781 28.2903C15.8631 27.8038 15.248 27.0786 15.248 27.0786C15.1562 27.0602 14.9635 27.0511 14.7065 27.0511C14.3485 27.0511 13.8895 27.0694 13.4764 27.0878C12.8889 27.1153 12.3933 27.1429 12.3933 27.1429C10.6675 27.1429 8.02387 25.7476 8.02387 25.7476C7.70259 25.5732 6.9866 24.9674 6.61025 24.6828C5.98605 24.1871 5.38939 23.5354 4.88452 22.9203C4.45309 22.3971 4.10428 21.9106 3.87479 21.5802C3.6912 21.314 3.59023 21.1487 3.59023 21.1487C3.59023 21.1487 3.59023 21.213 3.59023 21.3323C3.59023 21.5434 3.60859 21.9473 3.61777 22.4889C3.76464 27.7487 4.26033 46.851 4.0951 49.5222C3.99412 51.1653 3.57187 51.7344 3.18634 51.8996C3.07619 51.9455 2.97521 51.9639 2.88342 51.9639C2.69065 51.9639 2.54378 51.8904 2.54378 51.8904C2.48871 51.8904 2.42445 51.8996 2.37855 51.8996C1.17606 51.8996 1.16688 49.8526 1.16688 49.8526C0.570216 49.4212 0.5335 48.3289 0.5335 48.3289C0.5335 48.3289 0.432525 18.551 0.414167 17.7799C0.377449 16.2286 1.29539 15.2189 2.8008 14.3468C4.48981 13.3646 7.10593 13.181 7.10593 13.181C9.88728 12.0061 9.95154 7.19608 9.95154 7.19608C9.95154 7.19608 9.93318 7.10429 9.97908 6.9666M9.97908 6.50763C9.79549 6.50763 9.63944 6.62696 9.58436 6.79219C9.52929 6.95742 9.52929 7.08593 9.53847 7.16854C9.52929 7.55408 9.33652 11.6664 7.00496 12.7221C6.55517 12.7588 4.20525 13.0066 2.58968 13.9429C1.35964 14.6589 -0.044801 15.7329 0.00109585 17.7432C0.0194546 18.5051 0.120427 47.9892 0.120427 48.283C0.120427 48.4207 0.175504 49.4212 0.762984 49.9995C0.808881 50.9266 1.19441 52.2668 2.37855 52.2668C2.41527 52.2668 2.45199 52.2668 2.48871 52.2668C2.5805 52.3035 2.71819 52.3311 2.88342 52.3311C3.04865 52.3311 3.2047 52.2943 3.35157 52.2301C4.03084 51.9272 4.4072 51.0368 4.49899 49.5038C4.6734 46.7133 4.13181 26.5646 4.02166 22.4706C4.17771 22.6817 4.3613 22.9112 4.55407 23.1498C5.18744 23.9209 5.7841 24.5267 6.34404 24.9765L6.61025 25.1877C7.11511 25.5915 7.55572 25.9404 7.81274 26.0872C7.93207 26.1515 10.5757 27.5284 12.3841 27.5376C12.4116 27.5376 12.4391 27.5376 12.4575 27.5376C12.6044 27.5376 13.0083 27.5009 13.4856 27.4825C13.8987 27.4641 14.3485 27.4458 14.6973 27.4458C14.8625 27.4458 14.9727 27.4458 15.0369 27.4458C15.2664 27.6844 15.8263 28.226 16.579 28.6299C17.0472 28.8778 17.5153 29.0338 17.9651 29.0889L17.9835 29.4928C18.0753 31.7601 18.5434 43.2527 18.5618 46.6674C18.5618 48.6134 18.6352 50.7155 18.6811 52.4045C18.6995 52.992 18.7178 53.5336 18.727 53.9834C18.7454 54.8095 18.7454 55.2776 18.727 55.3878C18.6903 55.5438 18.3323 55.8835 18.1854 56.0212C18.1028 56.1038 18.0294 56.168 17.9835 56.2231L17.9192 56.2874C17.6439 56.5811 16.9829 57.2604 17.0105 58.1508C17.0472 59.3441 19.2411 59.3441 19.9662 59.3441H20.0397H20.0947C20.8291 59.3441 23.0689 59.3441 23.3718 58.059C23.537 57.3705 23.4269 56.5995 23.3167 55.8559C23.2525 55.4337 23.1882 55.0023 23.179 54.5892C23.179 54.3322 23.1423 53.7539 23.1056 52.9736C22.9679 50.1555 22.7017 44.8958 22.821 41.7381C22.9312 38.6997 22.7109 32.8249 22.564 29.5846L22.5273 28.8594V28.5932C22.7935 28.4831 23.1974 28.2811 23.5462 27.8772C24.0327 27.3356 24.2989 26.6196 24.354 25.7292C24.7395 25.2703 25.7401 24.0586 26.3918 23.1039C26.3918 23.2967 26.4102 23.517 26.4193 23.7557V23.9301C26.5203 26.3902 26.6947 30.9615 26.7039 33.0085C26.7039 34.367 26.8324 37.0474 26.9517 39.6452C27.0711 42.142 27.1996 44.9784 27.1537 45.3088C27.117 45.5567 26.9058 45.8137 26.7039 46.0524C26.4469 46.3645 26.1807 46.6858 26.1807 47.0988C26.1807 47.3375 26.2816 47.4935 26.3643 47.5853C26.502 47.723 26.7039 47.7965 26.9609 47.7965C27.0711 47.7965 27.1904 47.7781 27.3006 47.7597C27.374 48.5492 27.5209 49.9169 27.6769 50.3208C27.8238 50.6971 28.1267 50.9358 28.4663 50.9358C28.6407 50.9358 28.9896 50.8715 29.2374 50.385C29.3659 50.4401 29.5128 50.486 29.6688 50.486C29.8983 50.486 30.3114 50.3942 30.5409 49.7608C30.5501 49.7333 30.5592 49.6966 30.5592 49.669C30.5592 49.6323 30.9172 46.3002 30.9264 42.8121C30.9264 40.5815 30.7245 33.9907 30.5592 28.685C30.4674 25.6099 30.3756 22.9571 30.3573 21.7821C30.293 18.5051 30.2288 15.4208 28.1818 13.9888C26.6305 12.9057 25.2352 12.566 24.712 12.465C24.253 11.5746 22.307 7.77438 21.9582 6.99414C21.9306 6.9207 21.8847 6.84727 21.8296 6.76465C21.7562 6.6545 21.6277 6.59024 21.49 6.59024C21.3523 6.59024 21.2238 6.6545 21.1504 6.77383C21.1504 6.77383 20.9943 6.88398 20.3701 6.9207C19.0942 6.99414 18.5985 7.68259 18.2405 8.17828C18.112 8.35268 18.011 8.49955 17.9009 8.58217C17.7448 8.7015 17.6347 8.83001 17.5704 8.9677C17.3501 8.51791 17.038 7.90289 16.8269 7.66423C16.6158 7.42557 16.3037 7.29706 15.9273 7.29706C15.7804 7.29706 15.6611 7.31541 15.606 7.32459C14.4403 7.43475 13.4948 7.48064 12.7329 7.48064C10.6125 7.48064 10.4839 7.07675 10.383 6.79219C10.3279 6.61778 10.1718 6.50763 9.98826 6.50763H9.97908Z" fill="white"/>
<path d="M3.58089 21.3599C2.74556 20.341 2.42429 19.2211 2.30496 18.3674C2.18562 17.5413 2.25906 16.9446 2.24988 16.9079" stroke="white" stroke-width="0.45" stroke-linecap="round" stroke-linejoin="round"/>
<path d="M4.65527 17.4219C4.65527 17.4219 4.94901 18.3032 5.72926 18.5785" stroke="white" stroke-width="0.45" stroke-linecap="round" stroke-linejoin="round"/>
<path d="M6.24316 18.9365C6.24316 18.9365 6.76639 19.2394 7.4273 19.2302" stroke="white" stroke-width="0.45" stroke-linecap="round" stroke-linejoin="round"/>
<path d="M8.63867 19.3772C8.63867 19.3772 10.0798 19.1018 10.447 18.0461" stroke="white" stroke-width="0.45" stroke-linecap="round" stroke-linejoin="round"/>
<path d="M2.37891 14.9985C2.37891 14.9985 2.55331 15.3565 3.55387 15.5677" stroke="white" stroke-width="0.45" stroke-linecap="round" stroke-linejoin="round"/>
<path d="M4.75586 15.9716C4.75586 15.9716 6.89465 16.5958 8.35417 16.2378" stroke="white" stroke-width="0.45" stroke-linecap="round" stroke-linejoin="round"/>
<path d="M5.729 14.0439C5.729 14.0439 6.48171 13.8053 7.11509 13.126" stroke="white" stroke-width="0.45" stroke-linecap="round" stroke-linejoin="round"/>
<path d="M12.292 16.8528C12.292 16.8528 13.2099 16.9813 14.2931 16.9538" stroke="white" stroke-width="0.45" stroke-linecap="round" stroke-linejoin="round"/>
<path d="M16.1016 17.0273C16.1016 17.0273 21.5541 16.7978 23.0503 16.2011" stroke="white" stroke-width="0.45" stroke-linecap="round" stroke-linejoin="round"/>
<path d="M24.8223 15.8798C24.9049 15.8798 26.3552 15.6411 26.7867 14.8425" stroke="white" stroke-width="0.45" stroke-linecap="round" stroke-linejoin="round"/>
<path d="M14.2476 0.413073C14.3027 0.413073 14.3577 0.440611 14.4036 0.486507C14.7892 0.954656 15.4317 1.60639 15.9825 1.62475C16.8453 1.64311 17.3594 1.87259 17.3594 1.87259V6.27869C17.3594 6.27869 16.983 6.50818 16.6159 6.50818C16.4782 6.50818 16.3405 6.47146 16.2303 6.37967C15.9458 6.141 15.753 6.04921 15.5327 6.04921C15.4409 6.04921 15.3399 6.06757 15.2206 6.10428C15.138 6.13182 15.0462 6.141 14.9544 6.141C14.6148 6.141 14.22 6.00331 14.0273 5.83808C13.9171 5.74629 13.9997 2.08372 14.0273 0.624198C14.0273 0.495687 14.1282 0.422251 14.2384 0.422251M14.2476 0C13.9079 0 13.6326 0.266203 13.6234 0.605839C13.4949 5.91152 13.5683 5.97577 13.7611 6.141C14.0364 6.37967 14.5321 6.54489 14.9544 6.54489C15.0921 6.54489 15.2206 6.52654 15.3399 6.48982C15.4225 6.46228 15.4868 6.4531 15.5327 6.4531C15.6061 6.4531 15.6979 6.47146 15.9641 6.69176C16.1385 6.83863 16.368 6.91207 16.6159 6.91207C17.084 6.91207 17.5246 6.65505 17.5705 6.61833C17.6898 6.54489 17.7725 6.4072 17.7725 6.26951V1.86341C17.7725 1.69818 17.6715 1.55132 17.5246 1.48706C17.4971 1.47788 16.928 1.23004 16.0008 1.21168C15.7805 1.21168 15.3216 0.945476 14.7249 0.229484C14.6056 0.0826144 14.4312 0.00917958 14.2476 0.00917958V0Z" fill="white"/>
<path d="M6.37159 21.2865C6.25226 21.4792 5.91262 21.4884 5.60971 21.3048C5.30679 21.1212 5.15992 20.8183 5.27925 20.6255C5.37104 20.4787 5.58217 20.442 5.80247 20.5062C5.87591 20.5246 5.95852 20.5613 6.03196 20.6072" stroke="white" stroke-width="0.45" stroke-linecap="round" stroke-linejoin="round"/>
<path d="M1.59842 48.2188C1.59842 48.2188 1.85545 50.0087 1.16699 49.8068Z" fill="#DBDBDB"/>
<path d="M1.59842 48.2188C1.59842 48.2188 1.85545 50.0087 1.16699 49.8068" stroke="white" stroke-width="0.45" stroke-linecap="round" stroke-linejoin="round"/>
<path d="M18 29C18.8333 29.3333 20.9 29.7 22.5 28.5" stroke="white" stroke-width="0.45" stroke-linecap="round" stroke-linejoin="round"/>
<path d="M24.7671 16.4581C24.7671 16.4581 25.8594 16.4856 26.5938 15.0812" stroke="white" stroke-width="0.45" stroke-linecap="round" stroke-linejoin="round"/>
<path d="M16.6431 26.739C16.6431 26.739 16.6247 27.4549 17.3866 27.6844" stroke="white" stroke-width="0.45" stroke-linecap="round" stroke-linejoin="round"/>
<path d="M14.4588 27.1613C14.3578 27.1613 14.2752 27.0878 14.266 26.9868C14.1283 26.1056 14.5965 25.766 14.6148 25.7568C14.6516 25.7293 14.6883 25.7201 14.7342 25.7201C14.7709 25.7201 14.8076 25.7201 14.8352 25.7476C14.9086 25.7843 14.9453 25.867 14.9361 25.9404C14.9361 25.9404 14.8902 26.4912 15.1289 26.8583C15.1656 26.9226 15.1748 27.0052 15.1289 27.0695C15.0922 27.1337 15.0279 27.1704 14.9545 27.1704L14.468 27.1521L14.4588 27.1613Z" fill="white"/>
<path d="M14.7249 25.922C14.7249 25.922 14.6698 26.537 14.9452 26.9685L14.4587 26.9501C14.3394 26.1882 14.7249 25.922 14.7249 25.922ZM14.7341 25.5089C14.6331 25.5089 14.5505 25.5457 14.4771 25.6007C14.3669 25.6925 13.9263 26.0964 14.064 27.0144C14.0915 27.2071 14.2568 27.354 14.4587 27.3632L14.9452 27.3815C14.9452 27.3815 14.9544 27.3815 14.9636 27.3815C15.1104 27.3815 15.2481 27.2989 15.3216 27.1796C15.395 27.0511 15.395 26.8858 15.3216 26.7482C15.1747 26.5095 15.1563 26.1515 15.1655 25.9863C15.1655 25.9679 15.1655 25.9404 15.1655 25.9128C15.1655 25.6833 14.9819 25.4998 14.7524 25.4998L14.7341 25.5089Z" fill="white"/>
<path d="M8.87796 41.8024C8.87796 41.8024 8.50161 42.2522 8.88714 42.6744" stroke="white" stroke-width="0.45" stroke-linecap="round" stroke-linejoin="round"/>
<path d="M11.3561 56.4526C11.3561 56.4526 12.1456 57.1135 11.2827 57.7193" stroke="white" stroke-width="0.45" stroke-linecap="round" stroke-linejoin="round"/>
<path d="M21.9489 56.6913C21.9489 56.6913 22.6374 57.5909 21.7837 57.701" stroke="white" stroke-width="0.45" stroke-linecap="round" stroke-linejoin="round"/>
<path d="M29.6689 35.6338C29.6689 35.6338 30.1646 36.0101 29.8617 36.6252" stroke="white" stroke-width="0.45" stroke-linecap="round" stroke-linejoin="round"/>
<path d="M26.5479 20.2675C26.5479 20.2675 26.5479 20.2858 26.557 20.3225C26.5938 20.5153 26.7039 21.2221 26.7682 22.0299C26.7682 22.0299 26.7682 22.0299 26.7682 22.0391C26.7682 22.085 26.7682 22.14 26.7773 22.1859" stroke="white" stroke-width="0.45" stroke-linecap="round" stroke-linejoin="round"/>
<path d="M25.6665 20.653C25.6665 20.653 26.5661 20.5704 26.6946 21.369" stroke="white" stroke-width="0.45" stroke-linecap="round" stroke-linejoin="round"/>
<path d="M19.9756 18.7805C20.4162 18.6153 20.8476 18.6612 20.9394 18.8815C21.0312 19.1018 20.7375 19.4231 20.2877 19.5975C19.8379 19.7719 19.4156 19.7168 19.3238 19.4965C19.2871 19.3864 19.3238 19.267 19.434 19.1385" stroke="white" stroke-width="0.45" stroke-linecap="round" stroke-linejoin="round"/>
<path d="M17.9466 26.2709C18.222 26.4453 18.378 26.6931 18.2862 26.84C18.1944 26.9868 17.9007 26.9501 17.6253 26.7757C17.3499 26.6013 17.1939 26.3535 17.2857 26.2066C17.3224 26.1423 17.4142 26.1148 17.5243 26.1148" stroke="white" stroke-width="0.45" stroke-linecap="round" stroke-linejoin="round"/>
<path d="M12.0627 24.2422C12.2555 24.591 12.2463 24.9582 12.0535 25.0683C11.8608 25.1785 11.5487 24.9765 11.3559 24.6277C11.1631 24.2789 11.1723 23.9117 11.3651 23.8016C11.4569 23.7557 11.5762 23.7648 11.6955 23.8383" stroke="white" stroke-width="0.45" stroke-linecap="round" stroke-linejoin="round"/>
<path d="M2.21348 18.3215C2.21348 18.3215 2.69081 20.3134 3.59957 21.3415L3.61793 22.1768C3.61793 22.1768 1.90138 21.2589 2.2043 18.3123L2.21348 18.3215Z" fill="white" stroke="white" stroke-width="0.45" stroke-linecap="round" stroke-linejoin="round"/>
<path d="M15.248 6.1588V4.25867" stroke="white" stroke-width="0.45" stroke-linecap="round" stroke-linejoin="round"/>
<path d="M15.2207 2.65287V1.96442" stroke="white" stroke-width="0.45" stroke-linecap="round" stroke-linejoin="round"/>
<path d="M2.97559 40.8477C2.97559 40.8477 3.38866 44.0513 3.30604 45.6577Z" fill="white"/>
<path d="M2.97559 40.8477C2.97559 40.8477 3.38866 44.0513 3.30604 45.6577" stroke="white" stroke-width="0.45" stroke-linecap="round" stroke-linejoin="round"/>
<path d="M23.7939 23.8291C23.7939 23.8291 24.0877 24.9582 24.0601 25.7017" stroke="white" stroke-width="0.45" stroke-linecap="round" stroke-linejoin="round"/>
</svg>
