<svg width="782" height="781" viewBox="0 0 782 781" fill="none" xmlns="http://www.w3.org/2000/svg">
<path d="M391.03 765.56C598.291 765.56 766.31 597.541 766.31 390.28C766.31 183.019 598.291 15 391.03 15C183.769 15 15.75 183.019 15.75 390.28C15.75 597.541 183.769 765.56 391.03 765.56Z" stroke="white" stroke-width="30" stroke-miterlimit="10"/>
<path d="M391.028 571.642C491.19 571.642 572.388 490.444 572.388 390.282C572.388 290.119 491.19 208.922 391.028 208.922C290.866 208.922 209.668 290.119 209.668 390.282C209.668 490.444 290.866 571.642 391.028 571.642Z" stroke="white" stroke-width="30" stroke-miterlimit="10"/>
<path d="M176.041 117.461C193.631 101.841 238.011 66.5207 287.721 58.5907C292.801 57.7807 296.151 63.7106 292.821 67.6306L282.601 79.6306C280.051 82.6306 281.361 87.2506 285.111 88.4606L296.121 92.0206C300.391 93.4006 301.321 99.0306 297.721 101.701L285.401 110.861C282.041 113.361 282.581 118.541 286.371 120.301L299.461 126.371C302.961 127.991 303.761 132.601 301.021 135.311L292.311 143.901C289.111 147.061 290.821 152.511 295.251 153.271L311.141 156.001C314.491 156.581 316.531 160.011 315.431 163.221L312.901 170.661C312.221 172.651 312.731 174.841 314.211 176.331L324.991 187.181C327.871 190.081 326.721 194.981 322.861 196.301C310.761 200.421 288.251 208.841 272.521 219.181C268.141 222.061 262.601 217.741 264.291 212.771C265.761 208.441 261.641 204.301 257.301 205.761L253.601 207.001C248.671 208.661 244.391 203.211 247.171 198.821L250.111 194.181C253.011 189.601 248.271 184.031 243.281 186.151L225.971 193.521C221.511 195.421 216.951 191.071 218.631 186.531L222.261 176.721C223.971 172.091 219.201 167.711 214.731 169.811L206.541 173.661C201.801 175.891 196.911 170.881 199.251 166.191L201.251 162.191C203.311 158.071 199.711 153.381 195.191 154.311L186.691 156.071C182.251 156.991 178.661 152.471 180.561 148.351L186.491 135.491C187.991 132.241 186.051 128.441 182.531 127.761L178.651 127.001C174.161 126.131 172.621 120.491 176.041 117.451V117.461Z" fill="white"/>
<path d="M435.341 734.938C457.881 735.378 509.381 727.648 580.651 664.048C584.451 660.658 582.411 654.558 577.721 655.238L567.311 656.758C563.121 657.368 560.841 652.418 563.631 648.768L564.791 647.248C568.161 642.838 564.151 637.268 559.451 639.818L556.961 641.168C552.481 643.588 548.491 638.608 551.331 634.148L554.791 628.728C557.191 624.958 554.691 620.418 550.631 621.178L536.171 623.908C531.941 624.708 529.481 619.778 532.231 616.038L539.311 606.418C542.461 602.138 538.801 596.778 534.191 598.928L532.181 599.868C528.321 601.668 524.751 598.088 526.241 593.918L528.301 588.158C529.631 584.428 526.901 580.998 523.301 581.868L514.441 584.028C510.361 585.028 507.621 580.558 509.941 576.678C512.441 572.508 509.091 567.858 504.801 569.528L447.431 591.988C443.861 593.388 442.591 598.208 445.141 600.698L448.511 604.008C450.901 606.358 449.941 610.848 446.691 612.508L445.321 613.208C441.651 615.078 441.041 620.358 444.261 622.288L448.241 624.678C451.221 626.468 450.961 631.238 447.761 633.418L443.931 636.018C440.731 638.198 440.471 642.968 443.451 644.758L448.581 647.838C451.071 649.328 451.391 653.048 449.241 655.558L433.821 673.558C430.821 677.058 432.821 682.208 437.031 681.838L438.761 681.688C442.541 681.358 444.691 685.588 442.561 689.148L435.211 701.418C433.351 704.518 434.711 708.288 437.871 708.838L442.341 709.608C446.471 710.318 447.121 716.138 443.371 718.798L433.671 725.698C429.641 728.568 430.771 734.858 435.331 734.948L435.341 734.938Z" fill="white"/>
</svg>
