<svg width="31" height="59" viewBox="0 0 31 59" fill="none" xmlns="http://www.w3.org/2000/svg">
<path d="M12.2746 28.3734C11.1088 28.2541 9.41977 27.3362 7.93271 26.4825C7.86845 26.4458 7.83174 26.3815 7.83174 26.3081L7.8042 24.3253C7.8042 24.2519 7.84092 24.1785 7.91435 24.1417C7.94189 24.1234 7.97861 24.1142 8.01532 24.1142C8.05204 24.1142 8.09794 24.1234 8.13466 24.1509C8.1622 24.1693 10.7508 25.895 12.3939 25.9042C12.449 25.9042 12.504 25.9317 12.5408 25.9684C12.5775 26.0051 12.5958 26.0602 12.5958 26.1245C12.5958 26.1796 12.5591 26.9598 12.5132 28.1807C12.5132 28.2357 12.4857 28.2908 12.4398 28.3275C12.4031 28.3642 12.2929 28.3734 12.2837 28.3734H12.2746Z" fill="white"/>
<path d="M8.00575 24.3162C8.00575 24.3162 10.6586 26.097 12.3751 26.1062C12.3751 26.1613 12.3384 26.9415 12.2925 28.1624C11.0992 28.043 9.21742 26.9782 8.0241 26.299C8.00575 24.9496 7.99657 24.3162 7.99657 24.3162M8.00575 23.9031C7.94149 23.9031 7.86806 23.9215 7.8038 23.949C7.66611 24.0225 7.5835 24.1693 7.5835 24.3162C7.5835 24.3162 7.59267 24.9496 7.61103 26.299C7.61103 26.4458 7.69365 26.5835 7.82216 26.6569C9.32758 27.5198 11.0441 28.4469 12.2466 28.5754C12.265 28.5754 12.2742 28.5754 12.2925 28.5754C12.3935 28.5754 12.4853 28.5387 12.5679 28.4745C12.6505 28.401 12.7056 28.2909 12.7148 28.1807C12.7607 26.9599 12.7974 26.1888 12.7974 26.1245C12.7974 26.0144 12.7607 25.9042 12.6872 25.8216C12.6138 25.739 12.5036 25.6931 12.3935 25.6931C10.8146 25.6931 8.27195 23.9858 8.24441 23.9766C8.17098 23.9307 8.09754 23.9031 8.01493 23.9031H8.00575Z" fill="white"/>
<path d="M15.7168 5.18152C17.4059 5.18153 18.7058 5.27962 19.6426 5.4696C20.31 5.60497 20.7345 5.77802 20.9902 5.9491C20.8452 5.98846 20.6417 6.02131 20.3623 6.03601L20.3564 6.03699C19.7786 6.07479 19.3467 6.24424 19.0088 6.495C18.6826 6.73712 18.4722 7.03615 18.3164 7.26062C18.1526 7.48591 18.0723 7.59553 17.9727 7.66199L17.9609 7.6698L17.9502 7.67761C17.7434 7.83268 17.6202 8.03242 17.5723 8.26648C17.4859 8.08922 17.3664 7.84142 17.2402 7.59851C17.1541 7.43275 17.0632 7.26458 16.9785 7.11902C16.9388 7.05069 16.8963 6.97956 16.8525 6.91296L16.7207 6.73328L16.6172 6.63171C16.3659 6.42211 16.0533 6.4032 15.9092 6.4032C15.825 6.40321 15.7518 6.40953 15.6992 6.41589C15.6728 6.41909 15.6504 6.42196 15.6338 6.42468C15.6316 6.42504 15.629 6.42532 15.627 6.42566C14.7376 6.50602 13.973 6.54967 13.3027 6.54968C11.9188 6.54968 11.1402 6.38192 10.7148 6.1991C10.4589 6.08906 10.3509 5.98066 10.3027 5.91199C10.3164 5.89466 10.3323 5.87496 10.3545 5.85535C10.428 5.79047 10.5708 5.69981 10.8467 5.60632C11.4073 5.4164 12.4158 5.25021 14.2246 5.20007L14.2285 5.1991C14.751 5.18108 15.2478 5.18152 15.7168 5.18152Z" fill="white" stroke="white"/>
<mask id="path-4-inside-1_158_166" fill="white">
<path d="M15.7256 4.89262C19.1036 4.89262 20.9579 5.27816 21.4903 6.00333C21.3985 6.14102 21.1139 6.28789 20.3887 6.32461C18.8558 6.4164 18.6814 7.50875 18.1398 7.90346C17.5982 8.30735 18.0296 8.98663 17.8277 9.28955C17.8002 9.32626 17.7726 9.34462 17.7451 9.34462C17.5707 9.34462 17.4054 8.59191 17.4054 8.59191C17.4054 8.59191 16.7904 7.25172 16.4967 6.91209C16.3406 6.7285 16.0928 6.6826 15.9092 6.6826C15.7623 6.6826 15.6522 6.71014 15.6522 6.71014C14.7251 6.79276 13.954 6.82947 13.3023 6.82947C10.475 6.82947 10.0436 6.14102 9.97933 5.89318C10.1078 5.48928 10.7779 4.9936 14.2202 4.89262C14.7526 4.87427 15.2483 4.87427 15.7256 4.87427M15.7256 4.47955C15.2483 4.47955 14.7434 4.47955 14.211 4.49791C10.475 4.59889 9.77739 5.17719 9.58462 5.78302C9.55708 5.85646 9.55708 5.93907 9.58462 6.01251C9.73149 6.58163 10.4934 7.2609 13.3114 7.2609C14.0091 7.2609 14.8169 7.21501 15.6981 7.14157C15.7164 7.14157 15.7348 7.14157 15.7532 7.13239C15.7532 7.13239 15.8266 7.11403 15.9184 7.11403C15.9918 7.11403 16.1295 7.12321 16.1938 7.19665C16.359 7.38941 16.7721 8.1972 17.0199 8.73878C17.176 9.45477 17.4054 9.77605 17.7543 9.77605C17.8552 9.77605 18.0388 9.74852 18.1765 9.53739C18.3417 9.29873 18.3142 9.02334 18.2867 8.7755C18.2591 8.44504 18.2683 8.33489 18.3876 8.2431C18.5988 8.08705 18.7548 7.86674 18.9109 7.6648C19.2321 7.21501 19.5351 6.80194 20.4255 6.74686C21.1965 6.70096 21.6371 6.54491 21.8391 6.24199C21.9401 6.09512 21.9309 5.91154 21.8391 5.76467C21.4444 5.2139 20.3796 4.47955 15.744 4.47955H15.7256Z"/>
</mask>
<path d="M15.7256 4.89262C19.1036 4.89262 20.9579 5.27816 21.4903 6.00333C21.3985 6.14102 21.1139 6.28789 20.3887 6.32461C18.8558 6.4164 18.6814 7.50875 18.1398 7.90346C17.5982 8.30735 18.0296 8.98663 17.8277 9.28955C17.8002 9.32626 17.7726 9.34462 17.7451 9.34462C17.5707 9.34462 17.4054 8.59191 17.4054 8.59191C17.4054 8.59191 16.7904 7.25172 16.4967 6.91209C16.3406 6.7285 16.0928 6.6826 15.9092 6.6826C15.7623 6.6826 15.6522 6.71014 15.6522 6.71014C14.7251 6.79276 13.954 6.82947 13.3023 6.82947C10.475 6.82947 10.0436 6.14102 9.97933 5.89318C10.1078 5.48928 10.7779 4.9936 14.2202 4.89262C14.7526 4.87427 15.2483 4.87427 15.7256 4.87427M15.7256 4.47955C15.2483 4.47955 14.7434 4.47955 14.211 4.49791C10.475 4.59889 9.77739 5.17719 9.58462 5.78302C9.55708 5.85646 9.55708 5.93907 9.58462 6.01251C9.73149 6.58163 10.4934 7.2609 13.3114 7.2609C14.0091 7.2609 14.8169 7.21501 15.6981 7.14157C15.7164 7.14157 15.7348 7.14157 15.7532 7.13239C15.7532 7.13239 15.8266 7.11403 15.9184 7.11403C15.9918 7.11403 16.1295 7.12321 16.1938 7.19665C16.359 7.38941 16.7721 8.1972 17.0199 8.73878C17.176 9.45477 17.4054 9.77605 17.7543 9.77605C17.8552 9.77605 18.0388 9.74852 18.1765 9.53739C18.3417 9.29873 18.3142 9.02334 18.2867 8.7755C18.2591 8.44504 18.2683 8.33489 18.3876 8.2431C18.5988 8.08705 18.7548 7.86674 18.9109 7.6648C19.2321 7.21501 19.5351 6.80194 20.4255 6.74686C21.1965 6.70096 21.6371 6.54491 21.8391 6.24199C21.9401 6.09512 21.9309 5.91154 21.8391 5.76467C21.4444 5.2139 20.3796 4.47955 15.744 4.47955H15.7256Z" fill="white"/>
<path d="M21.4903 6.00333L22.3223 6.55803L22.7105 5.97569L22.2963 5.41152L21.4903 6.00333ZM20.3887 6.32461L20.3382 5.32584L20.329 5.3264L20.3887 6.32461ZM18.1398 7.90346L17.5508 7.09527L17.542 7.10183L18.1398 7.90346ZM17.8277 9.28955L18.6277 9.88955L18.6444 9.86734L18.6597 9.84425L17.8277 9.28955ZM17.4054 8.59191L18.3822 8.37751L18.3591 8.27252L18.3143 8.17483L17.4054 8.59191ZM16.4967 6.91209L15.7347 7.55976L15.7403 7.56624L16.4967 6.91209ZM15.6522 6.71014L15.7409 7.70619L15.8188 7.69925L15.8947 7.68028L15.6522 6.71014ZM9.97933 5.89318L9.02641 5.58997L8.93893 5.86488L9.01133 6.14414L9.97933 5.89318ZM14.2202 4.89262L14.2495 5.89221L14.2547 5.89203L14.2202 4.89262ZM14.211 4.49791L14.238 5.49758L14.2455 5.49732L14.211 4.49791ZM9.58462 5.78302L10.5209 6.13415L10.5299 6.1104L10.5375 6.08623L9.58462 5.78302ZM9.58462 6.01251L10.5529 5.76263L10.5396 5.71116L10.5209 5.66139L9.58462 6.01251ZM15.6981 7.14157V6.14157H15.6565L15.615 6.14503L15.6981 7.14157ZM15.7532 7.13239L15.5106 6.16225L15.4041 6.18887L15.3059 6.23797L15.7532 7.13239ZM16.1938 7.19665L16.9531 6.54582L16.9463 6.53814L16.1938 7.19665ZM17.0199 8.73878L17.997 8.52583L17.974 8.4206L17.9292 8.32266L17.0199 8.73878ZM18.1765 9.53739L17.3543 8.96818L17.3465 8.97954L17.3389 8.99112L18.1765 9.53739ZM18.2867 8.7755L17.2901 8.85855L17.2913 8.87226L17.2928 8.88593L18.2867 8.7755ZM18.3876 8.2431L17.7932 7.43892L17.7855 7.44462L17.7779 7.45047L18.3876 8.2431ZM18.9109 7.6648L19.7021 8.27624L19.7137 8.26135L19.7246 8.24603L18.9109 7.6648ZM20.4255 6.74686L20.366 5.74862L20.3637 5.74877L20.4255 6.74686ZM21.8391 6.24199L21.015 5.67546L21.011 5.68135L21.007 5.68729L21.8391 6.24199ZM21.8391 5.76467L22.6871 5.23467L22.6703 5.20785L22.6519 5.18215L21.8391 5.76467ZM15.7256 4.89262V5.89262C17.3875 5.89262 18.6219 5.98833 19.4823 6.15729C19.9119 6.24165 20.2171 6.33845 20.4235 6.43298C20.635 6.52991 20.687 6.59891 20.6842 6.59513L21.4903 6.00333L22.2963 5.41152C22.0274 5.04517 21.6479 4.79403 21.2565 4.61472C20.8598 4.43301 20.3905 4.29745 19.8678 4.19478C18.8234 3.98969 17.4418 3.89262 15.7256 3.89262V4.89262ZM21.4903 6.00333L20.6582 5.44863C20.7226 5.35209 20.7915 5.29768 20.8294 5.2726C20.8664 5.24815 20.8818 5.24604 20.857 5.25441C20.8024 5.27288 20.6496 5.31012 20.3382 5.32589L20.3887 6.32461L20.4393 7.32333C20.853 7.30238 21.2052 7.24782 21.497 7.14925C21.7775 7.05451 22.1051 6.88388 22.3223 6.55803L21.4903 6.00333ZM20.3887 6.32461L20.329 5.3264C19.2722 5.38968 18.6095 5.82407 18.1519 6.32853C17.9543 6.54636 17.7893 6.78644 17.6968 6.91308C17.5787 7.07464 17.5464 7.09855 17.5508 7.09532L18.1398 7.90346L18.7288 8.7116C19.004 8.51101 19.1966 8.25037 19.3115 8.09322C19.4518 7.90117 19.5278 7.78842 19.6331 7.67235C19.7813 7.50901 19.9723 7.35133 20.4485 7.32282L20.3887 6.32461ZM18.1398 7.90346L17.542 7.10183C16.8587 7.61135 16.837 8.32765 16.858 8.69205C16.8631 8.77974 16.8717 8.8653 16.8769 8.91953C16.883 8.98347 16.8854 9.01345 16.886 9.0338C16.8882 9.10398 16.864 8.93237 16.9956 8.73485L17.8277 9.28955L18.6597 9.84425C18.8924 9.49526 18.8899 9.12514 18.885 8.97014C18.8821 8.8779 18.8735 8.78862 18.8679 8.72918C18.8612 8.66002 18.8571 8.61808 18.8547 8.57669C18.8498 8.49198 18.8597 8.50014 18.846 8.5443C18.8244 8.61385 18.7776 8.67527 18.7376 8.70509L18.1398 7.90346ZM17.8277 9.28955L17.0277 8.68955C17.0643 8.64079 17.296 8.34462 17.7451 8.34462V9.34462V10.3446C18.2492 10.3446 18.536 10.0117 18.6277 9.88955L17.8277 9.28955ZM17.7451 9.34462V8.34462C18.095 8.34462 18.311 8.53072 18.3768 8.59464C18.4521 8.66767 18.486 8.72961 18.4883 8.73373C18.4952 8.74588 18.4936 8.74503 18.4854 8.72505C18.4779 8.70692 18.4686 8.68189 18.458 8.65031C18.4365 8.58636 18.417 8.51678 18.4022 8.45959C18.3951 8.43198 18.3896 8.40938 18.3861 8.39451C18.3844 8.38712 18.3832 8.38176 18.3825 8.37878C18.3821 8.3773 18.382 8.37642 18.3819 8.37619C18.3819 8.37607 18.3819 8.37612 18.3819 8.37634C18.382 8.37645 18.382 8.3766 18.382 8.37679C18.3821 8.37689 18.3821 8.377 18.3821 8.37712C18.3821 8.37718 18.3821 8.37727 18.3821 8.3773C18.3822 8.3774 18.3822 8.37751 17.4054 8.59191C16.4287 8.80632 16.4287 8.80643 16.4287 8.80654C16.4288 8.80658 16.4288 8.80669 16.4288 8.80678C16.4288 8.80694 16.4289 8.80712 16.4289 8.80731C16.429 8.80768 16.4291 8.80811 16.4292 8.80858C16.4294 8.80952 16.4297 8.81065 16.43 8.81196C16.4305 8.81458 16.4313 8.81792 16.4322 8.82195C16.434 8.83 16.4365 8.84082 16.4396 8.854C16.4458 8.88029 16.4546 8.9165 16.4657 8.95946C16.4874 9.0434 16.5201 9.16199 16.5618 9.28623C16.5998 9.39976 16.6609 9.56572 16.7486 9.72029C16.7909 9.79497 16.8663 9.91572 16.984 10.0299C17.0923 10.135 17.3515 10.3446 17.7451 10.3446V9.34462ZM17.4054 8.59191C18.3143 8.17483 18.3143 8.17479 18.3143 8.17474C18.3143 8.17472 18.3142 8.17466 18.3142 8.17462C18.3142 8.17453 18.3141 8.17442 18.3141 8.17428C18.3139 8.17402 18.3138 8.17367 18.3136 8.17325C18.3132 8.17239 18.3127 8.17122 18.312 8.16974C18.3106 8.16677 18.3087 8.16255 18.3062 8.15715C18.3012 8.14636 18.294 8.13084 18.2848 8.11118C18.2665 8.07189 18.2403 8.01591 18.2079 7.94788C18.1434 7.81224 18.0538 7.62668 17.954 7.4289C17.855 7.23261 17.742 7.01642 17.6311 6.82217C17.5317 6.64793 17.3966 6.42391 17.2531 6.25794L16.4967 6.91209L15.7403 7.56624C15.7339 7.55884 15.7472 7.5738 15.7815 7.62661C15.8127 7.67463 15.8506 7.7373 15.8941 7.81352C15.9812 7.96607 16.077 8.14862 16.1684 8.32983C16.2591 8.50955 16.3416 8.68026 16.4016 8.80652C16.4315 8.86944 16.4556 8.92082 16.4721 8.95614C16.4803 8.97379 16.4866 8.98741 16.4908 8.99641C16.4929 9.00091 16.4944 9.00426 16.4954 9.00638C16.4959 9.00744 16.4962 9.0082 16.4964 9.00863C16.4965 9.00885 16.4966 9.00899 16.4966 9.00906C16.4966 9.00909 16.4966 9.0091 16.4966 9.00909C16.4966 9.00908 16.4966 9.00906 16.4966 9.00906C16.4966 9.00903 16.4966 9.009 17.4054 8.59191ZM16.4967 6.91209L17.2586 6.26444C16.8172 5.74512 16.1972 5.6826 15.9092 5.6826V6.6826V7.6826C15.9246 7.6826 15.9218 7.68534 15.9002 7.67822C15.8752 7.66998 15.8032 7.64021 15.7348 7.55974L16.4967 6.91209ZM15.9092 6.6826V5.6826C15.7752 5.6826 15.6601 5.69501 15.5773 5.70744C15.5351 5.71376 15.4993 5.72039 15.4713 5.72612C15.4572 5.729 15.445 5.73168 15.4347 5.73403C15.4295 5.73521 15.4248 5.73631 15.4207 5.7373C15.4186 5.7378 15.4166 5.73828 15.4148 5.73873C15.4139 5.73895 15.413 5.73917 15.4121 5.73938C15.4117 5.73949 15.4113 5.73959 15.4109 5.7397C15.4107 5.73975 15.4105 5.7398 15.4102 5.73985C15.4101 5.73987 15.41 5.73991 15.4099 5.73992C15.4098 5.73996 15.4096 5.74 15.6522 6.71014C15.8947 7.68028 15.8946 7.68032 15.8944 7.68036C15.8944 7.68037 15.8942 7.68041 15.8941 7.68043C15.8939 7.68048 15.8937 7.68053 15.8935 7.68058C15.8932 7.68067 15.8928 7.68077 15.8924 7.68086C15.8917 7.68104 15.8909 7.68122 15.8902 7.6814C15.8888 7.68174 15.8875 7.68206 15.8862 7.68236C15.8838 7.68296 15.8816 7.68346 15.8797 7.68388C15.876 7.68473 15.8735 7.68526 15.8721 7.68555C15.8693 7.68612 15.8702 7.68587 15.874 7.68531C15.8829 7.68396 15.8964 7.6826 15.9092 7.6826V6.6826ZM15.6522 6.71014L15.5634 5.71409C14.658 5.79477 13.9175 5.82947 13.3023 5.82947V6.82947V7.82947C13.9905 7.82947 14.7921 7.79074 15.7409 7.70619L15.6522 6.71014ZM13.3023 6.82947V5.82947C11.9496 5.82947 11.2912 5.66174 11.0018 5.53652C10.7474 5.42639 10.8852 5.40268 10.9473 5.64221L9.97933 5.89318L9.01133 6.14414C9.13769 6.63152 9.5234 7.07596 10.2075 7.37201C10.8567 7.65298 11.8277 7.82947 13.3023 7.82947V6.82947ZM9.97933 5.89318L10.9323 6.19638C10.8492 6.45739 10.6609 6.38446 11.1486 6.23589C11.6326 6.08842 12.5536 5.94194 14.2495 5.89219L14.2202 4.89262L14.1909 3.89305C12.4446 3.94428 11.3094 4.09613 10.5657 4.32272C9.82554 4.54821 9.23797 4.92507 9.02641 5.58997L9.97933 5.89318ZM14.2202 4.89262L14.2547 5.89203C14.7674 5.87435 15.2465 5.87427 15.7256 5.87427V4.87427V3.87427C15.2501 3.87427 14.7379 3.87418 14.1857 3.89322L14.2202 4.89262ZM15.7256 4.47955V3.47955C15.2502 3.47955 14.7287 3.47947 14.1766 3.49851L14.211 4.49791L14.2455 5.49732C14.7581 5.47964 15.2464 5.47955 15.7256 5.47955V4.47955ZM14.211 4.49791L14.184 3.49828C12.2934 3.54937 11.0566 3.72105 10.2388 4.00729C9.81872 4.1543 9.46209 4.34724 9.1807 4.61017C8.88616 4.88539 8.7236 5.19097 8.63169 5.47982L9.58462 5.78302L10.5375 6.08623C10.542 6.07216 10.5389 6.07826 10.5462 6.0715C10.5666 6.05245 10.654 5.98092 10.8995 5.895C11.4127 5.71538 12.3926 5.54742 14.238 5.49755L14.211 4.49791ZM9.58462 5.78302L8.64829 5.4319C8.53586 5.73172 8.53586 6.06381 8.64829 6.36363L9.58462 6.01251L10.5209 5.66139C10.5783 5.81434 10.5783 5.9812 10.5209 6.13415L9.58462 5.78302ZM9.58462 6.01251L8.61634 6.26239C8.78453 6.91414 9.27693 7.43624 10.0517 7.76898C10.792 8.0869 11.8424 8.2609 13.3114 8.2609V7.2609V6.2609C11.9624 6.2609 11.2228 6.09527 10.8409 5.93127C10.4936 5.78209 10.5316 5.68 10.5529 5.76263L9.58462 6.01251ZM13.3114 7.2609V8.2609C14.0486 8.2609 14.8874 8.2126 15.7811 8.13812L15.6981 7.14157L15.615 6.14503C14.7464 6.21742 13.9695 6.2609 13.3114 6.2609V7.2609ZM15.6981 7.14157V8.14157C15.7001 8.14157 15.7203 8.14165 15.7431 8.14094C15.7677 8.14017 15.805 8.13828 15.8497 8.1327C15.9432 8.12101 16.0672 8.09342 16.2004 8.02682L15.7532 7.13239L15.3059 6.23797C15.5279 6.12697 15.7416 6.14157 15.6981 6.14157V7.14157ZM15.7532 7.13239C15.9957 8.10253 15.9956 8.10257 15.9954 8.1026C15.9954 8.10261 15.9952 8.10265 15.9951 8.10267C15.995 8.10272 15.9948 8.10276 15.9946 8.10281C15.9942 8.1029 15.9939 8.10299 15.9935 8.10308C15.9928 8.10326 15.9921 8.10343 15.9914 8.1036C15.99 8.10394 15.9887 8.10426 15.9874 8.10457C15.9848 8.10519 15.9824 8.10575 15.9802 8.10626C15.9758 8.10728 15.9719 8.10811 15.9687 8.10878C15.9623 8.11011 15.9574 8.11098 15.9534 8.11158C15.9476 8.11247 15.9364 8.11403 15.9184 8.11403V7.11403V6.11403C15.8086 6.11403 15.7147 6.12477 15.6493 6.13484C15.6155 6.14004 15.5865 6.1455 15.5635 6.15026C15.5519 6.15266 15.5416 6.15492 15.5328 6.15694C15.5284 6.15796 15.5243 6.15891 15.5206 6.1598C15.5188 6.16024 15.517 6.16067 15.5154 6.16108C15.5145 6.16128 15.5137 6.16148 15.5129 6.16168C15.5125 6.16178 15.5121 6.16187 15.5118 6.16197C15.5116 6.16202 15.5114 6.16206 15.5112 6.16211C15.5111 6.16213 15.5109 6.16217 15.5109 6.16218C15.5108 6.16222 15.5106 6.16225 15.7532 7.13239ZM15.9184 7.11403V8.11403C15.9166 8.11403 15.9105 8.11401 15.9008 8.1132C15.892 8.11247 15.8715 8.11042 15.8426 8.10399C15.8153 8.09793 15.7629 8.08415 15.698 8.05271C15.633 8.02125 15.5345 7.96179 15.4412 7.85515L16.1938 7.19665L16.9463 6.53814C16.7063 6.26385 16.406 6.18039 16.2765 6.15162C16.1229 6.11749 15.9879 6.11403 15.9184 6.11403V7.11403ZM16.1938 7.19665L15.4345 7.84744C15.4132 7.82259 15.4315 7.8412 15.497 7.95187C15.5516 8.04423 15.6182 8.16475 15.6913 8.30337C15.8373 8.58025 15.9943 8.90079 16.1106 9.15491L17.0199 8.73878L17.9292 8.32266C17.7977 8.03519 17.6242 7.68105 17.4604 7.37045C17.3786 7.21533 17.2955 7.06391 17.2184 6.93367C17.1522 6.82174 17.0569 6.66709 16.953 6.54586L16.1938 7.19665ZM17.0199 8.73878L16.0429 8.95173C16.1303 9.3532 16.2617 9.76975 16.4992 10.1045C16.773 10.4904 17.2008 10.7761 17.7543 10.7761V9.77605V8.77605C17.8285 8.77605 17.9202 8.79533 18.0068 8.84432C18.0876 8.89006 18.1248 8.93943 18.1304 8.94729C18.1341 8.95251 18.1164 8.92849 18.0881 8.85269C18.0604 8.77855 18.0289 8.67253 17.997 8.52583L17.0199 8.73878ZM17.7543 9.77605V10.7761C18.0588 10.7761 18.6288 10.6745 19.0141 10.0837L18.1765 9.53739L17.3389 8.99112C17.3772 8.93234 17.4489 8.86451 17.5493 8.82037C17.6389 8.78102 17.7156 8.77605 17.7543 8.77605V9.77605ZM18.1765 9.53739L18.9987 10.1066C19.4063 9.51786 19.3025 8.863 19.2805 8.66507L18.2867 8.7755L17.2928 8.88593C17.2998 8.94889 17.3039 8.98947 17.3061 9.02557C17.3082 9.05992 17.3074 9.07596 17.307 9.08049C17.3068 9.084 17.3074 9.07102 17.3148 9.04797C17.3227 9.02335 17.3357 8.99508 17.3543 8.96818L18.1765 9.53739ZM18.2867 8.7755L19.2832 8.69245C19.2768 8.61501 19.2744 8.5717 19.2738 8.54611C19.2733 8.51861 19.2759 8.5412 19.2677 8.58876C19.2581 8.64463 19.2337 8.73643 19.1728 8.83684C19.1119 8.93744 19.0416 9.00169 18.9973 9.03572L18.3876 8.2431L17.7779 7.45047C17.5218 7.6475 17.3533 7.91936 17.2965 8.25083C17.2577 8.4771 17.2781 8.71446 17.2901 8.85855L18.2867 8.7755ZM18.3876 8.2431L18.982 9.04727C19.3336 8.78739 19.5893 8.42226 19.7021 8.27624L18.9109 7.6648L18.1196 7.05335C17.9203 7.31122 17.8639 7.3867 17.7932 7.43892L18.3876 8.2431ZM18.9109 7.6648L19.7246 8.24603C19.8954 8.00687 19.9665 7.92251 20.0456 7.8646C20.095 7.82844 20.2019 7.7626 20.4872 7.74495L20.4255 6.74686L20.3637 5.74877C19.7586 5.78619 19.2689 5.95443 18.8639 6.25102C18.4886 6.52586 18.2476 6.87293 18.0971 7.08356L18.9109 7.6648ZM20.4255 6.74686L20.4849 7.74509C21.2569 7.69914 22.175 7.54096 22.6711 6.79669L21.8391 6.24199L21.007 5.68729C21.0588 5.60958 21.104 5.61534 21.0099 5.64886C20.9048 5.68634 20.7078 5.72828 20.366 5.74863L20.4255 6.74686ZM21.8391 6.24199L22.6631 6.80852C23.0211 6.28785 22.9589 5.6696 22.6871 5.23467L21.8391 5.76467L20.9911 6.29467C20.9028 6.15348 20.859 5.90239 21.015 5.67546L21.8391 6.24199ZM21.8391 5.76467L22.6519 5.18215C22.2907 4.67809 21.7077 4.2505 20.6533 3.95312C19.6298 3.66444 18.0995 3.47955 15.744 3.47955V4.47955V5.47955C18.0241 5.47955 19.3439 5.66184 20.1104 5.87802C20.846 6.08551 20.9928 6.30048 21.0263 6.34719L21.8391 5.76467ZM15.744 4.47955V3.47955H15.7256V4.47955V5.47955H15.744V4.47955Z" fill="white" mask="url(#path-4-inside-1_158_166)"/>
<path d="M9.24478 58.1881C9.05201 58.1881 8.8776 58.1881 8.73073 58.1881C7.66593 58.1514 6.38082 58.0412 5.90349 57.5088C5.75662 57.3528 5.69236 57.1692 5.70154 56.9581C5.74744 56.2329 6.80307 55.4435 7.50988 54.9202C7.70265 54.7734 7.89541 54.6265 7.94131 54.5714C8.079 54.4062 8.079 54.3419 8.08818 54.1125C8.08818 54.039 8.08818 53.9656 8.10654 53.8738C8.10654 53.8187 8.10654 53.3322 8.09736 51.3036C8.05146 45.4196 7.89541 31.1916 7.83116 25.8583C7.83116 25.7757 7.88623 25.6931 7.95967 25.6656C7.98721 25.6564 8.00557 25.6472 8.0331 25.6472C8.08818 25.6472 8.14325 25.6748 8.18915 25.7206C8.50125 26.0695 8.83171 26.3816 9.17134 26.6569C10.3738 27.6116 11.5396 27.9053 12.3107 27.9788C12.4208 27.988 12.5035 28.0798 12.4943 28.1899C12.3382 32.1279 11.8334 45.135 11.8884 47.4391C11.9252 48.7701 12.1179 50.7528 12.2923 52.5061C12.4943 54.5714 12.6687 56.3614 12.5861 56.9581C12.4484 57.9861 10.6859 58.2065 9.24478 58.2065V58.1881Z" fill="white"/>
<path d="M8.03328 25.84C8.36374 26.2163 8.70337 26.5284 9.04301 26.8038C10.1996 27.7217 11.3654 28.0797 12.2925 28.1715C12.0997 33.0733 11.6316 45.1901 11.6867 47.439C11.7601 50.2663 12.5312 55.8474 12.3843 56.9213C12.2558 57.8485 10.4107 57.9861 9.24496 57.9861C9.05219 57.9861 8.87778 57.9861 8.74009 57.9861C7.72118 57.9494 5.85777 57.8301 5.91284 56.9764C5.96792 56.1227 7.87723 54.9845 8.10671 54.7091C8.3362 54.4337 8.28112 54.296 8.31784 53.8921C8.31784 53.8187 8.31784 52.8549 8.30866 51.3036C8.26276 45.4196 8.10671 31.1916 8.04246 25.8583M8.03328 25.4269C7.98738 25.4269 7.93231 25.4269 7.88641 25.4544C7.72118 25.5187 7.62021 25.6747 7.62021 25.8492C7.68446 31.4578 7.84051 45.5114 7.88641 51.2944C7.90477 53.3965 7.90477 53.8095 7.90477 53.8646C7.90477 53.9472 7.89559 54.0298 7.88641 54.1033C7.88641 54.3236 7.87723 54.3328 7.78544 54.4429C7.73954 54.4888 7.54677 54.6357 7.38154 54.755C6.40853 55.4802 5.53649 56.1962 5.49059 56.9489C5.47223 57.2059 5.56403 57.4537 5.73844 57.6465C6.27084 58.234 7.61103 58.3533 8.71255 58.39C8.85942 58.39 9.03383 58.39 9.23578 58.39C11.4572 58.39 12.6505 57.9127 12.7882 56.9672C12.8708 56.3522 12.6964 54.5531 12.4945 52.4693C12.32 50.7161 12.1273 48.7333 12.0906 47.4115C12.0355 45.1167 12.5404 32.1095 12.6964 28.1715C12.6964 27.9512 12.5404 27.7676 12.3292 27.7401C11.5857 27.6667 10.4566 27.3821 9.29085 26.4642C8.9604 26.198 8.63912 25.8951 8.3362 25.5554C8.25358 25.4636 8.14343 25.4177 8.0241 25.4177L8.03328 25.4269Z" fill="white"/>
<path d="M19.9754 58.133C18.1395 58.133 17.2399 57.8117 17.2216 57.1416C17.2032 56.3338 17.809 55.7004 18.0753 55.4251L18.1395 55.3516C18.1854 55.3057 18.2497 55.2415 18.3323 55.1589C18.5434 54.9661 18.883 54.6356 18.9381 54.4061C18.9657 54.2685 18.9381 53.2863 18.9381 52.965L18.8922 51.3861C18.8463 49.6971 18.7821 47.5951 18.7729 45.6582C18.7545 42.2343 18.2864 30.7417 18.1946 28.4744L18.167 27.8869C17.6805 27.8502 17.1849 27.7034 16.68 27.4371C15.8814 27.0149 15.3123 26.4274 15.1378 26.2346C15.0736 26.2346 14.9451 26.2163 14.7064 26.2163C14.3576 26.2163 13.8986 26.2346 13.4856 26.253C12.9991 26.2805 12.5676 26.2989 12.4391 26.3081C12.4208 26.3081 12.3932 26.3081 12.3932 26.3081C10.64 26.2989 8.03302 24.9404 7.92286 24.8853C7.64748 24.7384 7.14262 24.3345 6.73872 24.0041L6.4817 23.7929C5.94012 23.3615 5.34346 22.7557 4.71926 22.003C4.35209 21.5532 4.03081 21.1217 3.80132 20.8005L3.81968 21.4338C3.92983 25.4636 4.47142 45.6857 4.29701 48.4763C4.20522 49.9083 3.86558 50.7619 3.26892 51.0281C3.14959 51.0832 3.02108 51.1108 2.88339 51.1108C2.71816 51.1108 2.58965 51.074 2.51621 51.0373C2.47031 51.0373 2.42442 51.0373 2.37852 51.0373C1.1393 51.0373 0.983254 49.33 0.964896 48.8802C0.377416 48.3661 0.331518 47.3105 0.331518 47.2646C0.331518 46.9617 0.230546 17.4683 0.212187 16.7065C0.17547 15.2194 0.946536 14.1087 2.6998 13.0898C4.40716 12.0984 6.98657 11.9056 7.09672 11.8965C9.64858 10.8041 9.74956 6.15936 9.74956 6.11346C9.74956 6.11346 9.7312 5.99413 9.78628 5.81972C9.81381 5.73711 9.89643 5.67285 9.97904 5.67285C10.0708 5.67285 10.1443 5.72793 10.1718 5.81972C10.282 6.16854 10.4472 6.65504 12.7145 6.65504C13.4856 6.65504 14.4402 6.59997 15.6335 6.48982C15.6335 6.48982 15.7529 6.46228 15.9089 6.46228C16.2302 6.46228 16.4872 6.56325 16.6524 6.7652C16.9554 7.11401 17.5245 8.35323 17.5887 8.49092C17.6071 8.57353 17.6255 8.64697 17.6438 8.7204C17.6163 8.4083 17.6071 8.00441 18.0018 7.71067C18.1395 7.6097 18.2497 7.45365 18.3874 7.26088C18.727 6.79273 19.186 6.15936 20.3609 6.08592C21.132 6.04003 21.2789 5.88398 21.2972 5.84726C21.3339 5.79218 21.3982 5.75547 21.4716 5.75547C21.5359 5.75547 21.6001 5.79218 21.646 5.84726C21.6919 5.91152 21.7286 5.97577 21.7562 6.04003C22.1234 6.85699 24.2163 10.9326 24.5559 11.6119C24.9598 11.6762 26.4101 11.9791 28.0441 13.1173C30.0084 14.4851 30.0727 17.5234 30.1278 20.7362C30.1553 21.9203 30.2379 24.5824 30.3297 27.6483C30.4949 32.9448 30.7061 39.5447 30.6969 41.7662C30.6969 45.2451 30.3389 48.5681 30.3297 48.5956C30.1461 49.128 29.8524 49.229 29.6413 49.229C29.4393 49.229 29.2557 49.1372 29.1089 49.0362C28.9161 49.6053 28.5856 49.6788 28.4388 49.6788C28.1817 49.6788 27.9614 49.4952 27.8421 49.1923C27.6769 48.7608 27.5208 47.1177 27.4566 46.4476C27.3097 46.4935 27.1078 46.5302 26.9333 46.5302C26.7406 46.5302 26.5845 46.4752 26.4836 46.3742C26.4285 46.3191 26.355 46.209 26.355 46.0346C26.355 45.6949 26.5937 45.4104 26.8324 45.1166C27.0527 44.8504 27.273 44.575 27.3189 44.2721C27.374 43.9233 27.2454 41.197 27.1261 38.5625C27.0068 35.9648 26.8783 33.2844 26.8783 31.935C26.8691 29.888 26.6947 25.3075 26.5937 22.8475C26.5937 22.8475 26.5478 21.6266 26.5386 21.3604C25.9787 22.3518 24.4641 24.1785 24.1153 24.5824C24.0694 25.4544 23.8215 26.1612 23.3534 26.6753C22.9587 27.1159 22.5089 27.3086 22.261 27.3821L22.3161 28.5295C22.4538 31.7606 22.6833 37.6354 22.5731 40.6646C22.463 43.8315 22.72 49.0913 22.8577 51.9094C22.8944 52.6896 22.922 53.2679 22.9311 53.5249C22.9403 53.9472 23.0046 54.3878 23.0688 54.8192C23.1698 55.5444 23.28 56.2879 23.1239 56.9488C22.8577 58.0687 20.7465 58.0687 20.0488 58.0687H19.9203L19.9754 58.133Z" fill="white"/>
<path d="M9.97908 5.9207C10.1443 6.44393 10.4656 6.90289 12.7237 6.90289C13.4672 6.90289 14.4219 6.857 15.6611 6.73767C15.6611 6.73767 15.7713 6.71013 15.9181 6.71013C16.1017 6.71013 16.3404 6.75602 16.5056 6.93961C16.7902 7.27007 17.4144 8.61944 17.4144 8.61944C17.4144 8.61944 17.5704 9.37215 17.754 9.37215C17.7815 9.37215 17.8091 9.35379 17.8366 9.31707C18.0386 9.01415 17.6071 8.3257 18.1487 7.93099C18.6995 7.52709 18.8647 6.44393 20.3977 6.35213C21.1228 6.30624 21.3982 6.16854 21.4992 6.03085C21.5359 6.08593 21.5634 6.14101 21.591 6.1869C21.9949 7.08648 24.4458 11.8689 24.4458 11.8689C24.4458 11.8689 26.0705 12.0433 27.9523 13.356C29.8341 14.6686 29.8891 17.606 29.9534 20.8188C30.0177 24.0316 30.5317 38.3331 30.5225 41.8396C30.5225 45.3461 30.1553 48.6507 30.1553 48.6507C30.036 48.9903 29.8524 49.1005 29.6688 49.1005C29.3476 49.1005 29.0171 48.7517 29.0171 48.7517C28.9161 49.3208 28.6866 49.5503 28.4663 49.5503C28.3011 49.5503 28.1451 49.4126 28.0624 49.2014C27.8697 48.7058 27.6677 46.2549 27.6677 46.2549C27.6677 46.2549 27.273 46.4109 26.9609 46.4109C26.759 46.4109 26.5937 46.3467 26.5937 46.1264C26.5937 45.5848 27.4566 45.0983 27.5576 44.3915C27.6677 43.6846 27.1262 34.8449 27.117 32.0268C27.1078 29.9248 26.9242 25.2341 26.8324 22.7649C26.7957 21.9204 26.7773 21.3329 26.7773 21.2044C26.7773 21.1493 26.7773 21.0942 26.7682 21.0575C26.7682 21.0575 26.7682 21.0575 26.7682 21.0483C26.7498 20.9382 26.7131 20.9106 26.6764 20.9106C26.6213 20.9106 26.5662 20.9841 26.5662 20.9841C26.3459 21.7735 23.9593 24.5915 23.9593 24.5915C23.9225 25.5921 23.6104 26.2255 23.2525 26.6294C22.72 27.2168 22.0959 27.3086 22.0959 27.3086C22.0959 27.3086 22.105 27.5198 22.1234 27.8778C22.1326 28.0797 22.1417 28.3276 22.1601 28.6213C22.2794 31.3476 22.5273 37.6079 22.4171 40.7381C22.2703 44.8137 22.7476 52.4601 22.7751 53.6167C22.8027 54.7641 23.2157 55.9942 22.9771 56.9856C22.7476 57.9769 20.5721 57.9494 20.058 57.9494C20.0305 57.9494 20.003 57.9494 19.9754 57.9494C19.3512 57.9494 17.4603 57.9219 17.4327 57.16C17.4144 56.3614 18.1304 55.7004 18.2956 55.5169C18.4608 55.3241 19.0575 54.8651 19.1401 54.4888C19.1676 54.3694 19.1585 53.8187 19.1401 52.9925C19.0942 51.2576 18.984 48.311 18.9749 45.6857C18.9565 42.372 18.5251 31.4944 18.3966 28.4928C18.3782 27.9971 18.369 27.7217 18.369 27.7217C17.7907 27.7217 17.24 27.5381 16.781 27.2903C15.8631 26.8038 15.248 26.0786 15.248 26.0786C15.1562 26.0602 14.9635 26.0511 14.7065 26.0511C14.3485 26.0511 13.8895 26.0694 13.4764 26.0878C12.8889 26.1153 12.3933 26.1429 12.3933 26.1429C10.6675 26.1429 8.02387 24.7476 8.02387 24.7476C7.70259 24.5732 6.9866 23.9674 6.61025 23.6828C5.98605 23.1871 5.38939 22.5354 4.88452 21.9203C4.45309 21.3971 4.10428 20.9106 3.87479 20.5802C3.6912 20.314 3.59023 20.1487 3.59023 20.1487C3.59023 20.1487 3.59023 20.213 3.59023 20.3323C3.59023 20.5434 3.60859 20.9473 3.61777 21.4889C3.76464 26.7487 4.26033 45.851 4.0951 48.5222C3.99412 50.1653 3.57187 50.7344 3.18634 50.8996C3.07619 50.9455 2.97521 50.9639 2.88342 50.9639C2.69065 50.9639 2.54378 50.8904 2.54378 50.8904C2.48871 50.8904 2.42445 50.8996 2.37855 50.8996C1.17606 50.8996 1.16688 48.8526 1.16688 48.8526C0.570216 48.4212 0.5335 47.3289 0.5335 47.3289C0.5335 47.3289 0.432525 17.551 0.414167 16.7799C0.377449 15.2286 1.29539 14.2189 2.8008 13.3468C4.48981 12.3646 7.10593 12.181 7.10593 12.181C9.88728 11.0061 9.95154 6.19608 9.95154 6.19608C9.95154 6.19608 9.93318 6.10429 9.97908 5.9666M9.97908 5.50763C9.79549 5.50763 9.63944 5.62696 9.58436 5.79219C9.52929 5.95742 9.52929 6.08593 9.53847 6.16854C9.52929 6.55408 9.33652 10.6664 7.00496 11.7221C6.55517 11.7588 4.20525 12.0066 2.58968 12.9429C1.35964 13.6589 -0.044801 14.7329 0.00109585 16.7432C0.0194546 17.5051 0.120427 46.9892 0.120427 47.283C0.120427 47.4207 0.175504 48.4212 0.762984 48.9995C0.808881 49.9266 1.19441 51.2668 2.37855 51.2668C2.41527 51.2668 2.45199 51.2668 2.48871 51.2668C2.5805 51.3035 2.71819 51.3311 2.88342 51.3311C3.04865 51.3311 3.2047 51.2943 3.35157 51.2301C4.03084 50.9272 4.4072 50.0368 4.49899 48.5038C4.6734 45.7133 4.13181 25.5646 4.02166 21.4706C4.17771 21.6817 4.3613 21.9112 4.55407 22.1498C5.18744 22.9209 5.7841 23.5267 6.34404 23.9765L6.61025 24.1877C7.11511 24.5915 7.55572 24.9404 7.81274 25.0872C7.93207 25.1515 10.5757 26.5284 12.3841 26.5376C12.4116 26.5376 12.4391 26.5376 12.4575 26.5376C12.6044 26.5376 13.0083 26.5009 13.4856 26.4825C13.8987 26.4641 14.3485 26.4458 14.6973 26.4458C14.8625 26.4458 14.9727 26.4458 15.0369 26.4458C15.2664 26.6844 15.8263 27.226 16.579 27.6299C17.0472 27.8778 17.5153 28.0338 17.9651 28.0889L17.9835 28.4928C18.0753 30.7601 18.5434 42.2527 18.5618 45.6674C18.5618 47.6134 18.6352 49.7155 18.6811 51.4045C18.6995 51.992 18.7178 52.5336 18.727 52.9834C18.7454 53.8095 18.7454 54.2776 18.727 54.3878C18.6903 54.5438 18.3323 54.8835 18.1854 55.0212C18.1028 55.1038 18.0294 55.168 17.9835 55.2231L17.9192 55.2874C17.6439 55.5811 16.9829 56.2604 17.0105 57.1508C17.0472 58.3441 19.2411 58.3441 19.9662 58.3441H20.0397H20.0947C20.8291 58.3441 23.0689 58.3441 23.3718 57.059C23.537 56.3705 23.4269 55.5995 23.3167 54.8559C23.2525 54.4337 23.1882 54.0023 23.179 53.5892C23.179 53.3322 23.1423 52.7539 23.1056 51.9736C22.9679 49.1555 22.7017 43.8958 22.821 40.7381C22.9312 37.6997 22.7109 31.8249 22.564 28.5846L22.5273 27.8594V27.5932C22.7935 27.483 23.1974 27.2811 23.5462 26.8772C24.0327 26.3356 24.2989 25.6196 24.354 24.7292C24.7395 24.2703 25.7401 23.0586 26.3918 22.1039C26.3918 22.2967 26.4102 22.517 26.4193 22.7557V22.9301C26.5203 25.3902 26.6947 29.9615 26.7039 32.0085C26.7039 33.367 26.8324 36.0474 26.9517 38.6452C27.0711 41.142 27.1996 43.9784 27.1537 44.3088C27.117 44.5567 26.9058 44.8137 26.7039 45.0524C26.4469 45.3645 26.1807 45.6857 26.1807 46.0988C26.1807 46.3375 26.2816 46.4935 26.3643 46.5853C26.502 46.723 26.7039 46.7965 26.9609 46.7965C27.0711 46.7965 27.1904 46.7781 27.3006 46.7597C27.374 47.5492 27.5209 48.9169 27.6769 49.3208C27.8238 49.6971 28.1267 49.9358 28.4663 49.9358C28.6407 49.9358 28.9896 49.8715 29.2374 49.385C29.3659 49.4401 29.5128 49.486 29.6688 49.486C29.8983 49.486 30.3114 49.3942 30.5409 48.7608C30.5501 48.7333 30.5592 48.6966 30.5592 48.669C30.5592 48.6323 30.9172 45.3002 30.9264 41.8121C30.9264 39.5815 30.7245 32.9907 30.5592 27.685C30.4674 24.6099 30.3756 21.9571 30.3573 20.7821C30.293 17.5051 30.2288 14.4208 28.1818 12.9888C26.6305 11.9057 25.2352 11.566 24.712 11.465C24.253 10.5746 22.307 6.77438 21.9582 5.99414C21.9306 5.9207 21.8847 5.84727 21.8296 5.76465C21.7562 5.6545 21.6277 5.59024 21.49 5.59024C21.3523 5.59024 21.2238 5.6545 21.1504 5.77383C21.1504 5.77383 20.9943 5.88398 20.3701 5.9207C19.0942 5.99414 18.5985 6.68259 18.2405 7.17828C18.112 7.35268 18.011 7.49955 17.9009 7.58217C17.7448 7.7015 17.6347 7.83001 17.5704 7.9677C17.3501 7.51791 17.038 6.90289 16.8269 6.66423C16.6158 6.42557 16.3037 6.29706 15.9273 6.29706C15.7804 6.29706 15.6611 6.31541 15.606 6.32459C14.4403 6.43475 13.4948 6.48064 12.7329 6.48064C10.6125 6.48064 10.4839 6.07675 10.383 5.79219C10.3279 5.61778 10.1718 5.50763 9.98826 5.50763H9.97908Z" fill="white"/>
<path d="M16.6163 6.71008C16.4143 6.71008 16.2399 6.655 16.093 6.53567C15.8085 6.29701 15.6708 6.25111 15.5331 6.25111C15.4597 6.25111 15.3862 6.26947 15.2852 6.29701C15.1843 6.32455 15.0741 6.34291 14.9548 6.34291C14.5784 6.34291 14.1286 6.19604 13.89 5.98491C13.789 5.89312 13.6972 5.81968 13.8257 0.605797C13.8257 0.376313 14.0185 0.201904 14.2388 0.201904C14.3581 0.201904 14.4775 0.25698 14.5601 0.348774C15.1108 1.00969 15.6341 1.39522 15.9829 1.4044C16.8733 1.43194 17.4149 1.65225 17.4332 1.66142C17.5067 1.69814 17.5617 1.77158 17.5617 1.85419V6.26029C17.5617 6.33373 17.525 6.39798 17.4608 6.4347C17.4424 6.44388 17.0293 6.69172 16.6071 6.69172L16.6163 6.71008Z" fill="white"/>
<path d="M14.2476 0.413073C14.3027 0.413073 14.3577 0.440611 14.4036 0.486507C14.7892 0.954656 15.4317 1.60639 15.9825 1.62475C16.8453 1.64311 17.3594 1.87259 17.3594 1.87259V6.27869C17.3594 6.27869 16.983 6.50818 16.6159 6.50818C16.4782 6.50818 16.3405 6.47146 16.2303 6.37967C15.9458 6.141 15.753 6.04921 15.5327 6.04921C15.4409 6.04921 15.3399 6.06757 15.2206 6.10428C15.138 6.13182 15.0462 6.141 14.9544 6.141C14.6148 6.141 14.22 6.00331 14.0273 5.83808C13.9171 5.74629 13.9997 2.08372 14.0273 0.624198C14.0273 0.495687 14.1282 0.422251 14.2384 0.422251M14.2476 0C13.9079 0 13.6326 0.266203 13.6234 0.605839C13.4949 5.91152 13.5683 5.97577 13.7611 6.141C14.0364 6.37967 14.5321 6.54489 14.9544 6.54489C15.0921 6.54489 15.2206 6.52654 15.3399 6.48982C15.4225 6.46228 15.4868 6.4531 15.5327 6.4531C15.6061 6.4531 15.6979 6.47146 15.9641 6.69176C16.1385 6.83863 16.368 6.91207 16.6159 6.91207C17.084 6.91207 17.5246 6.65505 17.5705 6.61833C17.6898 6.54489 17.7725 6.4072 17.7725 6.26951V1.86341C17.7725 1.69818 17.6715 1.55132 17.5246 1.48706C17.4971 1.47788 16.928 1.23004 16.0008 1.21168C15.7805 1.21168 15.3216 0.945476 14.7249 0.229484C14.6056 0.0826144 14.4312 0.00917958 14.2476 0.00917958V0Z" fill="white"/>
</svg>
