<svg width="28" height="29" viewBox="0 0 28 29" fill="none" xmlns="http://www.w3.org/2000/svg">
<path d="M1.64258 1.14189C1.14183 1.18776 0.759155 1.6249 0.759155 2.14986V25.3179C0.759155 25.8107 1.0947 26.2283 1.55811 26.3152L11.673 28.1989C11.9558 28.2521 12.2451 28.1721 12.4645 27.9784C12.6847 27.7857 12.8112 27.5022 12.8112 27.2026V1.21459C12.8112 0.92869 12.6987 0.660842 12.4976 0.468129C12.2955 0.275415 12.03 0.180766 11.7574 0.206136L1.64258 1.14189Z" fill="#323232"/>
<path d="M27.4977 13.6661L19.5921 7.52899V10.7129H13.4501V16.5807H19.5921V19.7636L27.4977 13.6661Z" fill="#323232"/>
<path d="M18.9037 9.81027V1.88998C18.9037 1.68214 18.8239 1.4787 18.683 1.33184C18.5434 1.18499 18.3488 1.10059 18.1505 1.10059H13.4501V2.6784H17.3959V9.81076H18.9042L18.9037 9.81027Z" fill="#323232"/>
<path d="M13.4502 25.7386V27.3165H18.1506C18.3489 27.3165 18.5435 27.2325 18.6831 27.0852C18.824 26.9388 18.9038 26.7349 18.9038 26.5275V17.4359H17.3955V25.7396H13.4497L13.4502 25.7386Z" fill="#323232"/>
</svg>
