<svg width="184" height="184" viewBox="0 0 184 184" fill="none" xmlns="http://www.w3.org/2000/svg">
<g clip-path="url(#clip0_276_5)">
<path d="M91.5195 0C142.064 0 183.04 40.9746 183.04 91.5195C183.04 142.065 142.065 183.04 91.5195 183.04C40.9746 183.04 0 142.064 0 91.5195C0.00025155 40.9748 40.9748 0.000251519 91.5195 0ZM155.911 96.2695C151.341 94.7798 147.051 97.44 146.571 97.75C143.962 99.4198 142.711 101.739 142.361 102.39C141.011 104.86 131.941 121.51 123.161 129.56C117.041 135.17 106.651 140.63 92.9414 147.85C91.9514 148.37 89.3012 149.75 88.7012 152.29C87.7213 156.39 92.6512 161.09 94.9912 162.73H95.001C105.531 170.09 128.052 160.55 142.182 147.96C158.711 133.23 167.221 111.24 162.271 102.16C159.751 97.5202 155.911 96.2695 155.911 96.2695Z" fill="white"/>
</g>
<defs>
<clipPath id="clip0_276_5">
<rect width="183.05" height="183.05" fill="white"/>
</clipPath>
</defs>
</svg>
