<?xml version="1.0" encoding="UTF-8" standalone="no"?>
<!DOCTYPE svg PUBLIC "-//W3C//DTD SVG 1.1//EN" "http://www.w3.org/Graphics/SVG/1.1/DTD/svg11.dtd">
<svg width="100%" height="100%" viewBox="0 0 92 92" version="1.1" xmlns="http://www.w3.org/2000/svg" xmlns:xlink="http://www.w3.org/1999/xlink" xml:space="preserve" xmlns:serif="http://www.serif.com/" style="fill-rule:evenodd;clip-rule:evenodd;stroke-linejoin:round;stroke-miterlimit:2;">
    <g transform="matrix(0.138677,0.2878,-0.2878,0.138677,138.828,-174.822)">
        <path d="M559.602,694.638C557.817,693.375 556.473,691.175 555.973,687.924C555.498,684.837 555.744,680.466 556.43,675.219C557.87,664.205 561.186,648.89 561.752,633.875C562.11,624.388 561.383,615.02 558.149,607.081C543.703,571.623 525.808,555.869 508.771,542.481C496.848,533.113 485.353,524.815 475.551,512.277C458.155,490.024 445.883,465.067 442.966,445.212C440.828,430.661 443.733,418.695 452.27,411.599C464.079,401.782 483.272,401.768 503.983,408.995C533.422,419.266 566.025,443.782 582.905,470.658C608.199,510.931 636.387,564.215 614.389,640.564C606.599,667.602 590.929,687.915 577.874,694.585C570.928,698.133 564.51,698.108 559.602,694.638ZM430.487,430.927C432.985,432.693 434.044,435.121 433.873,438.453C433.771,440.438 433.115,442.92 432.171,445.911C428.558,457.357 420.798,478.118 440.009,511.287C459.334,544.655 475.311,557.488 491.69,570.841C503.02,580.078 514.529,589.562 527.398,605.739C545.255,628.184 551.755,653.496 549.914,673.67C548.625,687.789 543.227,699.446 534.95,706.327C523.196,716.098 505.042,718.045 485.54,713.432C457.505,706.802 426.676,686.769 409.683,659.713C384.405,619.464 353.715,561.304 375.7,485C383.49,457.962 399.159,437.649 412.215,430.98C419.161,427.432 425.579,427.457 430.487,430.927Z" style="fill:white;"/>
    </g>
</svg>
