<svg width="164" height="158" viewBox="0 0 164 158" fill="none" xmlns="http://www.w3.org/2000/svg">
<g clip-path="url(#clip0_276_9)">
<path d="M86.041 137.404C123.043 137.404 153.039 107.399 153.039 70.387C153.039 33.3753 123.043 3.37109 86.041 3.37109C49.0391 3.37109 19.043 33.3753 19.043 70.387C19.043 107.399 49.0391 137.404 86.041 137.404Z" fill="white" stroke="black" stroke-width="5" stroke-miterlimit="10"/>
<path d="M86.0401 103.591C103.923 103.591 118.419 89.09 118.419 71.203C118.419 53.315 103.923 38.8142 86.0401 38.8142C68.1571 38.8142 53.6602 53.315 53.6602 71.203C53.6602 89.09 68.1571 103.591 86.0401 103.591Z" fill="white" stroke="black" stroke-width="4" stroke-miterlimit="10"/>
<path d="M29.2909 42.9369C32.7479 37.0723 43.7405 20.1884 57.9821 15.8211C58.0099 15.8125 58.04 15.806 58.07 15.8018L59.6183 15.5851C60.1609 15.51 60.4675 16.1879 60.0515 16.5439L54.3021 21.4883C53.9376 21.8015 54.1241 22.4 54.6023 22.4493L59.213 22.9406C59.644 22.9856 59.8542 23.4897 59.584 23.8286L56.3179 27.9321C56.067 28.2475 56.23 28.7151 56.6203 28.8073L60.4911 29.7276C60.8728 29.8177 61.038 30.2681 60.8063 30.5856L58.5032 33.7367C58.2265 34.1142 58.5203 34.6441 58.9878 34.6076L63.131 34.2858C63.5577 34.2537 63.8558 34.6977 63.6628 35.0795L61.78 38.8184C61.5891 39.1959 61.8786 39.6378 62.3011 39.6142L67.6473 39.3096C68.1663 39.2795 68.4322 39.9209 68.044 40.2663C65.342 42.6816 58.6297 48.7586 54.7267 52.993C53.8003 53.9969 52.1255 53.2997 52.1834 51.9333L52.2263 50.953C52.2434 50.539 51.8167 50.2559 51.4435 50.4339L49.1511 51.5215C48.7157 51.7274 48.2439 51.3134 48.3941 50.8544L49.5628 47.2914C49.7365 46.7616 49.0996 46.339 48.6793 46.7079L44.757 50.14C44.3538 50.4918 43.7384 50.1186 43.8627 49.5995L45.1494 44.2068C45.2824 43.6469 44.5726 43.2844 44.1994 43.7241L40.3737 48.2095C39.9919 48.6578 39.2692 48.2717 39.4279 47.7054L41.002 42.1111C41.1521 41.5769 40.5066 41.1822 40.0992 41.5598L35.8059 45.556C35.422 45.9121 34.8044 45.5818 34.8902 45.0648L35.5486 41.1157C35.6279 40.6417 35.1025 40.3027 34.7015 40.5687L30.0651 43.6727C29.5804 43.9966 28.9907 43.441 29.2866 42.939L29.2909 42.9369Z" fill="black"/>
<path d="M140.666 99.6849C137.505 105.045 127.456 120.481 114.437 124.473C114.411 124.482 114.383 124.488 114.356 124.49L112.94 124.688C112.445 124.756 112.164 124.136 112.543 123.81L117.8 119.291C118.132 119.003 117.963 118.458 117.525 118.411L113.311 117.961C112.919 117.918 112.726 117.459 112.972 117.15L115.957 113.398C116.187 113.111 116.039 112.682 115.681 112.598L112.142 111.757C111.793 111.674 111.643 111.262 111.853 110.972L113.959 108.091C114.212 107.746 113.942 107.261 113.515 107.296L109.726 107.589C109.335 107.619 109.063 107.212 109.239 106.864L110.961 103.447C111.134 103.102 110.871 102.699 110.485 102.72L105.597 102.999C105.123 103.027 104.881 102.441 105.235 102.124C107.705 99.9169 113.843 94.3609 117.409 90.4889C118.256 89.5709 119.787 90.2099 119.734 91.4579L119.695 92.3549C119.678 92.7329 120.071 92.9919 120.412 92.8289L122.507 91.8339C122.906 91.6449 123.337 92.0249 123.199 92.4429L122.131 95.7009C121.973 96.1859 122.554 96.5719 122.938 96.2359L126.523 93.0969C126.89 92.7759 127.454 93.1169 127.343 93.5909L126.165 98.5219C126.043 99.0349 126.693 99.3649 127.034 98.9639L130.531 94.8649C130.881 94.4549 131.541 94.8089 131.396 95.3259L129.957 100.44C129.819 100.929 130.409 101.289 130.78 100.944L134.707 97.2909C135.056 96.9649 135.622 97.2669 135.543 97.7409L134.94 101.352C134.868 101.785 135.348 102.096 135.715 101.851L139.952 99.0129C140.396 98.7169 140.934 99.2259 140.664 99.6849H140.666Z" fill="black"/>
<path d="M77.892 53.7224C75.47 51.3435 72.6097 51.9012 70.6046 54.4817C68.9362 56.5817 67.9476 59.4154 67.3964 62.1182C66.3478 67.2685 66.7509 74.023 69.3522 78.02C70.596 79.98 72.7469 81.203 74.988 80.272C78.353 78.745 80.053 74.944 81.046 71.033C82.38 65.4966 81.852 57.7872 77.902 53.7331L77.889 53.7202L77.892 53.7224Z" fill="white" stroke="black" stroke-width="3" stroke-linecap="round" stroke-linejoin="round"/>
<path d="M100.157 53.4542C97.5357 51.2963 94.7347 52.1028 92.9637 54.8507C91.4857 57.0901 90.7487 59.9967 90.4377 62.7402C89.8437 67.9613 90.8387 74.656 93.7787 78.41C95.1897 80.253 97.4397 81.284 99.5897 80.16C102.809 78.343 104.169 74.407 104.817 70.426C105.662 64.7952 104.458 57.1587 100.169 53.4671L100.157 53.4564V53.4542Z" fill="white" stroke="black" stroke-width="3" stroke-linecap="round" stroke-linejoin="round"/>
<path d="M86.0079 78.9871C86.0079 78.9871 79.7549 81.6621 86.0399 83.2661" stroke="black" stroke-width="2" stroke-linecap="round" stroke-linejoin="round"/>
<path d="M91.0909 88.3819C91.1559 88.2299 91.0589 88.0589 90.8959 88.0369C89.3839 87.8309 82.9889 86.9729 80.6629 86.8269C77.9369 86.6559 79.9099 89.5039 81.5829 91.4759C82.5559 92.6229 83.9849 93.2899 85.4899 93.2899C87.3959 93.2899 89.1629 92.2819 90.1349 90.6409L91.0909 88.3849V88.3819Z" fill="white" stroke="black" stroke-width="2" stroke-linecap="round" stroke-linejoin="round"/>
<path d="M71.4867 56.4832C72.5783 56.6612 74.393 56.2815 75.169 59.7244C75.347 60.5138 75.628 64.1947 74.86 64.1947L73.1401 64.1604C69.0334 63.6692 69.7004 67.3909 72.2266 67.3201C72.4324 67.3137 74.513 67.6504 74.744 67.7019C75.351 67.8349 75.141 69.905 75.059 70.555C74.763 72.932 74.326 74.03 71.06 75.604C70.0928 76.07 68.9712 75.454 68.7804 74.349C68.1113 70.48 66.9425 61.0801 70.4102 56.8993C70.6782 56.5754 71.0835 56.4167 71.4846 56.4832H71.4867Z" fill="black"/>
<path d="M94.5567 56.4832C95.6487 56.6612 97.4627 56.2815 98.2387 59.7244C98.4167 60.5138 98.6977 64.1947 97.9297 64.1947L96.2097 64.1604C92.1037 63.6692 92.7707 67.3909 95.2967 67.3201C95.5027 67.3137 97.5827 67.6504 97.8147 67.7019C98.4207 67.8349 98.2107 69.905 98.1297 70.555C97.8337 72.932 97.3957 74.03 94.1297 75.604C93.1627 76.07 92.0417 75.454 91.8507 74.349C91.1817 70.48 90.0127 61.0801 93.4807 56.8993C93.7487 56.5754 94.1537 56.4167 94.5547 56.4832H94.5567Z" fill="black"/>
<path d="M77.7241 31.9414C77.7241 31.9414 76.0341 40.925 68.0391 39.7366" stroke="black" stroke-width="3" stroke-linecap="round" stroke-linejoin="round"/>
<path d="M94.7695 31.6667C94.7695 31.6667 96.5775 41.2768 105.126 40.0047" stroke="black" stroke-width="3" stroke-linecap="round" stroke-linejoin="round"/>
<path d="M20.1601 88.4549H14.5393C14.5393 88.4549 16.7246 71.5179 9.23172 71.2069C4.62972 71.0159 3.19072 79.8729 2.76402 86.7369C2.46802 91.5099 5.20442 95.9589 9.59422 97.8489C14.6101 100.007 21.2645 102.439 25.7786 102.439L20.1579 88.4579L20.1601 88.4549Z" fill="white" stroke="black" stroke-width="4" stroke-linecap="round" stroke-linejoin="round"/>
<path d="M151.444 86.595C151.444 86.595 169.608 94.672 157.365 108.13C145.12 121.588 138.796 108.13 138.796 108.13C138.796 108.13 135.298 102.342 147.676 101.536C160.054 100.729 148.35 95.48 148.35 95.48L151.444 86.598V86.595Z" fill="white" stroke="black" stroke-width="4" stroke-linecap="round" stroke-linejoin="round"/>
<path d="M120.161 128.075L125.941 134.935L130.393 132.041C130.393 132.041 128.613 125.584 134.176 129.147C137.343 131.175 140.193 134.302 142.063 136.619C144.579 139.74 142.479 144.418 138.475 144.555C137.976 144.573 137.435 144.558 136.848 144.506C129.282 143.839 133.509 141.612 133.509 141.612L128.975 144.219C124.791 146.625 119.471 146.01 116.057 142.595C115.504 142.041 115.004 141.419 114.592 140.72C111.699 135.823 110.363 132.929 110.363 132.929L120.161 128.073V128.075Z" fill="white" stroke="black" stroke-width="4" stroke-linecap="round" stroke-linejoin="round"/>
<path d="M64.2698 142.608C64.2698 142.608 60.2188 140.486 59.7213 140.349C58.8421 140.107 57.9114 139.946 57.3967 140.081C53.8411 141.014 54.4544 144.721 54.4544 144.721C54.4544 144.721 54.8983 150.283 65.3527 154.176C75.805 158.069 74.617 150.602 74.617 150.602L74.137 137.157L61.9044 134.866L60.2167 140.486" fill="white"/>
<path d="M64.2698 142.608C64.2698 142.608 60.2188 140.486 59.7213 140.349C58.8421 140.107 57.9114 139.946 57.3967 140.081C53.8411 141.014 54.4544 144.721 54.4544 144.721C54.4544 144.721 54.8983 150.283 65.3527 154.176C75.805 158.069 74.617 150.602 74.617 150.602L74.137 137.157L61.9044 134.866L60.2167 140.486" stroke="black" stroke-width="4" stroke-linecap="round" stroke-linejoin="round"/>
<path d="M27.979 71.8589C27.979 71.8589 26.0682 98.4859 46.0291 114.72" stroke="black" stroke-width="2" stroke-linecap="round" stroke-linejoin="round"/>
<path d="M32.8633 77.104C32.8633 77.104 33.5945 83.436 34.5274 85.311" stroke="black" stroke-width="2" stroke-linecap="round" stroke-linejoin="round"/>
<path d="M37.4727 93.511C37.4727 93.511 40.2433 100.127 41.292 101.206" stroke="black" stroke-width="2" stroke-linecap="round" stroke-linejoin="round"/>
<path d="M46.4336 108.154C46.4336 108.154 49.2343 111.738 50.8534 112.454" stroke="black" stroke-width="2" stroke-linecap="round" stroke-linejoin="round"/>
<path d="M37.4727 72.082C37.4727 72.082 39.1411 98.275 56.8781 109.303" stroke="black" stroke-width="2" stroke-linecap="round" stroke-linejoin="round"/>
<path d="M45.7812 73.3779C45.7812 73.3779 47.4625 96.2289 59.6303 102.064" stroke="black" stroke-width="2" stroke-linecap="round" stroke-linejoin="round"/>
<path d="M77.4961 109.552C77.4961 109.552 86.1961 112.714 99.7111 108.943" stroke="black" stroke-width="2" stroke-linecap="round" stroke-linejoin="round"/>
<path d="M75.6641 117.011C75.6641 117.011 87.0711 121.086 103.986 115.222" stroke="black" stroke-width="2" stroke-linecap="round" stroke-linejoin="round"/>
<path d="M88.1445 122.444C88.1445 122.444 97.2625 121.957 104.063 119.81" stroke="black" stroke-width="2" stroke-linecap="round" stroke-linejoin="round"/>
<path d="M76.2773 124.862C76.2773 124.862 87.1393 129.767 104.801 124.289" stroke="white" stroke-width="2" stroke-linecap="round" stroke-linejoin="round"/>
<path d="M70.4844 128.944C70.4844 128.944 81.447 134.456 101.815 129.894" stroke="white" stroke-width="2" stroke-linecap="round" stroke-linejoin="round"/>
<path d="M120.805 48.0337C120.805 48.0337 128.572 60.4966 126.962 70.025" stroke="black" stroke-width="2" stroke-linecap="round" stroke-linejoin="round"/>
<path d="M122.562 38.7969C122.562 38.7969 136.341 53.4584 134.728 70.025" stroke="black" stroke-width="2" stroke-linecap="round" stroke-linejoin="round"/>
<path d="M131.062 40.5559C131.062 40.5559 137.366 51.8454 137.66 55.6572" stroke="black" stroke-width="2" stroke-linecap="round" stroke-linejoin="round"/>
<path d="M131.062 33.55C131.062 33.55 145.867 50.6098 143.669 71.166" stroke="black" stroke-width="2" stroke-linecap="round" stroke-linejoin="round"/>
<path d="M78.4414 13.8713C78.4414 13.8713 107.757 11.9643 120.068 25.1608" stroke="black" stroke-width="2" stroke-linecap="round" stroke-linejoin="round"/>
<path d="M79.3242 19.47C79.3242 19.47 83.7202 18.2473 91.4902 18.8587" stroke="black" stroke-width="2" stroke-linecap="round" stroke-linejoin="round"/>
<path d="M98.5234 20.1755C98.5234 20.1755 104.826 20.6153 111.714 24.5729" stroke="black" stroke-width="2" stroke-linecap="round" stroke-linejoin="round"/>
<path d="M76.832 26.1882C76.832 26.1882 96.034 22.1447 113.915 33.55" stroke="black" stroke-width="2" stroke-linecap="round" stroke-linejoin="round"/>
</g>
<defs>
<clipPath id="clip0_276_9">
<rect width="164" height="158" fill="white"/>
</clipPath>
</defs>
</svg>
