<svg width="221" height="220" viewBox="0 0 221 220" fill="none" xmlns="http://www.w3.org/2000/svg">
<path d="M112.041 168.404C149.043 168.404 179.039 138.399 179.039 101.387C179.039 64.3753 149.043 34.3711 112.041 34.3711C75.0391 34.3711 45.043 64.3753 45.043 101.387C45.043 138.399 75.0391 168.404 112.041 168.404Z" fill="white" stroke="black" stroke-width="5" stroke-miterlimit="10"/>
<path d="M112.042 134.591C129.925 134.591 144.421 120.09 144.421 102.203C144.421 84.315 129.925 69.8142 112.042 69.8142C94.159 69.8142 79.6621 84.315 79.6621 102.203C79.6621 120.09 94.159 134.591 112.042 134.591Z" fill="white" stroke="black" stroke-width="4" stroke-miterlimit="10"/>
<path d="M55.2899 73.9369C58.7469 68.0723 69.7395 51.1884 83.9811 46.8211C84.0089 46.8125 84.039 46.806 84.069 46.8018L85.6173 46.5851C86.1599 46.51 86.4665 47.1879 86.0505 47.5439L80.3011 52.4883C79.9366 52.8015 80.1231 53.4 80.6013 53.4493L85.212 53.9406C85.643 53.9856 85.8532 54.4897 85.583 54.8286L82.3169 58.9321C82.066 59.2475 82.229 59.7151 82.6193 59.8073L86.4901 60.7276C86.8718 60.8177 87.037 61.2681 86.8053 61.5856L84.5022 64.7367C84.2255 65.1142 84.5193 65.6441 84.9868 65.6076L89.13 65.2858C89.5567 65.2537 89.8548 65.6977 89.6618 66.0795L87.779 69.8184C87.5881 70.1959 87.8776 70.6378 88.3001 70.6142L93.6463 70.3096C94.1653 70.2795 94.4312 70.9209 94.043 71.2663C91.341 73.6816 84.6287 79.7586 80.7257 83.993C79.7993 84.9969 78.1245 84.2997 78.1824 82.9333L78.2253 81.953C78.2424 81.539 77.8157 81.2559 77.4425 81.4339L75.1501 82.5215C74.7147 82.7274 74.2429 82.3134 74.3931 81.8544L75.5618 78.2914C75.7355 77.7616 75.0986 77.339 74.6783 77.7079L70.756 81.14C70.3528 81.4918 69.7374 81.1186 69.8617 80.5995L71.1484 75.2068C71.2814 74.6469 70.5716 74.2844 70.1984 74.7241L66.3727 79.2095C65.9909 79.6578 65.2682 79.2717 65.4269 78.7054L67.001 73.1111C67.1511 72.5769 66.5056 72.1822 66.0982 72.5598L61.8049 76.556C61.421 76.9121 60.8034 76.5818 60.8892 76.0648L61.5476 72.1157C61.6269 71.6417 61.1015 71.3027 60.7005 71.5687L56.0641 74.6727C55.5794 74.9966 54.9897 74.441 55.2856 73.939L55.2899 73.9369Z" fill="black"/>
<path d="M166.668 130.685C163.507 136.045 153.458 151.481 140.439 155.473C140.413 155.482 140.385 155.488 140.358 155.49L138.942 155.688C138.447 155.756 138.166 155.136 138.545 154.81L143.802 150.291C144.134 150.003 143.965 149.458 143.527 149.411L139.313 148.961C138.921 148.918 138.728 148.459 138.974 148.15L141.959 144.398C142.189 144.111 142.041 143.682 141.683 143.598L138.144 142.757C137.795 142.674 137.645 142.262 137.855 141.972L139.961 139.091C140.214 138.746 139.944 138.261 139.517 138.296L135.728 138.589C135.337 138.619 135.065 138.212 135.241 137.864L136.963 134.447C137.136 134.102 136.873 133.699 136.487 133.72L131.599 133.999C131.125 134.027 130.883 133.441 131.237 133.124C133.707 130.917 139.845 125.361 143.411 121.489C144.258 120.571 145.789 121.21 145.736 122.458L145.697 123.355C145.68 123.733 146.073 123.992 146.414 123.829L148.509 122.834C148.908 122.645 149.339 123.025 149.201 123.443L148.133 126.701C147.975 127.186 148.556 127.572 148.94 127.236L152.525 124.097C152.892 123.776 153.456 124.117 153.345 124.591L152.167 129.522C152.045 130.035 152.695 130.365 153.036 129.964L156.533 125.865C156.883 125.455 157.543 125.809 157.398 126.326L155.959 131.44C155.821 131.929 156.411 132.289 156.782 131.944L160.709 128.291C161.058 127.965 161.624 128.267 161.545 128.741L160.942 132.352C160.87 132.785 161.35 133.096 161.717 132.851L165.954 130.013C166.398 129.717 166.936 130.226 166.666 130.685H166.668Z" fill="black"/>
<path d="M103.893 84.7224C101.471 82.3435 98.6107 82.9012 96.6056 85.4817C94.9372 87.5817 93.9486 90.4154 93.3974 93.1182C92.3488 98.2685 92.7519 105.023 95.3532 109.02C96.597 110.98 98.7479 112.203 100.989 111.272C104.354 109.745 106.054 105.944 107.047 102.033C108.381 96.4966 107.853 88.7872 103.903 84.7331L103.89 84.7202L103.893 84.7224Z" fill="white" stroke="black" stroke-width="3" stroke-linecap="round" stroke-linejoin="round"/>
<path d="M126.155 84.4542C123.534 82.2963 120.733 83.1028 118.962 85.8507C117.484 88.0901 116.747 90.9967 116.436 93.7402C115.842 98.9613 116.837 105.656 119.777 109.41C121.188 111.253 123.438 112.284 125.588 111.16C128.807 109.343 130.167 105.407 130.815 101.426C131.66 95.7952 130.456 88.1587 126.167 84.4671L126.155 84.4564V84.4542Z" fill="white" stroke="black" stroke-width="3" stroke-linecap="round" stroke-linejoin="round"/>
<path d="M112.009 109.987C112.009 109.987 105.756 112.662 112.041 114.266" stroke="black" stroke-width="2" stroke-linecap="round" stroke-linejoin="round"/>
<path d="M117.089 119.382C117.154 119.23 117.057 119.059 116.894 119.037C115.382 118.831 108.987 117.973 106.661 117.827C103.935 117.656 105.908 120.504 107.581 122.476C108.554 123.623 109.983 124.29 111.488 124.29C113.394 124.29 115.161 123.282 116.133 121.641L117.089 119.385V119.382Z" fill="white" stroke="black" stroke-width="2" stroke-linecap="round" stroke-linejoin="round"/>
<path d="M97.4867 87.4832C98.5783 87.6612 100.393 87.2815 101.169 90.7244C101.347 91.5138 101.628 95.1947 100.86 95.1947L99.1401 95.1604C95.0334 94.6692 95.7004 98.3909 98.2266 98.3201C98.4324 98.3137 100.513 98.6504 100.744 98.7019C101.351 98.8349 101.141 100.905 101.059 101.555C100.763 103.932 100.326 105.03 97.06 106.604C96.0928 107.07 94.9712 106.454 94.7804 105.349C94.1113 101.48 92.9425 92.0801 96.4102 87.8993C96.6782 87.5754 97.0835 87.4167 97.4846 87.4832H97.4867Z" fill="black"/>
<path d="M120.555 87.4832C121.647 87.6612 123.461 87.2815 124.237 90.7244C124.415 91.5138 124.696 95.1947 123.928 95.1947L122.208 95.1604C118.102 94.6692 118.769 98.3909 121.295 98.3201C121.501 98.3137 123.581 98.6504 123.813 98.7019C124.419 98.8349 124.209 100.905 124.128 101.555C123.832 103.932 123.394 105.03 120.128 106.604C119.161 107.07 118.04 106.454 117.849 105.349C117.18 101.48 116.011 92.0801 119.479 87.8993C119.747 87.5754 120.152 87.4167 120.553 87.4832H120.555Z" fill="black"/>
<path d="M103.725 62.9414C103.725 62.9414 102.035 71.925 94.04 70.7366" stroke="black" stroke-width="3" stroke-linecap="round" stroke-linejoin="round"/>
<path d="M120.771 62.6667C120.771 62.6667 122.579 72.2767 131.127 71.0046" stroke="black" stroke-width="3" stroke-linecap="round" stroke-linejoin="round"/>
<path d="M46.1582 119.455H40.5374C40.5374 119.455 42.7227 102.518 35.2298 102.207C30.6278 102.016 29.1888 110.873 28.7621 117.737C28.4661 122.51 31.2025 126.959 35.5923 128.849C40.6082 131.007 47.2626 133.439 51.7767 133.439L46.156 119.458L46.1582 119.455Z" fill="white" stroke="black" stroke-width="4" stroke-linecap="round" stroke-linejoin="round"/>
<path d="M177.444 117.595C177.444 117.595 195.608 125.672 183.365 139.13C171.12 152.588 164.796 139.13 164.796 139.13C164.796 139.13 161.298 133.342 173.676 132.536C186.054 131.729 174.35 126.48 174.35 126.48L177.444 117.598V117.595Z" fill="white" stroke="black" stroke-width="4" stroke-linecap="round" stroke-linejoin="round"/>
<path d="M146.16 159.075L151.94 165.935L156.392 163.041C156.392 163.041 154.612 156.584 160.175 160.147C163.342 162.175 166.192 165.302 168.062 167.619C170.578 170.74 168.478 175.418 164.474 175.555C163.975 175.573 163.434 175.558 162.847 175.506C155.281 174.839 159.508 172.612 159.508 172.612L154.974 175.219C150.79 177.625 145.47 177.01 142.056 173.595C141.503 173.041 141.003 172.419 140.591 171.72C137.698 166.823 136.362 163.929 136.362 163.929L146.16 159.073V159.075Z" fill="white" stroke="black" stroke-width="4" stroke-linecap="round" stroke-linejoin="round"/>
<path d="M90.2688 173.608C90.2688 173.608 86.2178 171.486 85.7203 171.349C84.8411 171.107 83.9104 170.946 83.3957 171.081C79.8401 172.014 80.4534 175.721 80.4534 175.721C80.4534 175.721 80.8973 181.283 91.3517 185.176C101.804 189.069 100.616 181.602 100.616 181.602L100.136 168.157L87.9034 165.866L86.2157 171.486" fill="white"/>
<path d="M90.2688 173.608C90.2688 173.608 86.2178 171.486 85.7203 171.349C84.8411 171.107 83.9104 170.946 83.3957 171.081C79.8401 172.014 80.4534 175.721 80.4534 175.721C80.4534 175.721 80.8973 181.283 91.3517 185.176C101.804 189.069 100.616 181.602 100.616 181.602L100.136 168.157L87.9034 165.866L86.2157 171.486" stroke="black" stroke-width="4" stroke-linecap="round" stroke-linejoin="round"/>
<path d="M53.9771 102.859C53.9771 102.859 52.0663 129.486 72.0272 145.72" stroke="black" stroke-width="2" stroke-linecap="round" stroke-linejoin="round"/>
<path d="M58.8643 108.104C58.8643 108.104 59.5955 114.436 60.5284 116.311" stroke="black" stroke-width="2" stroke-linecap="round" stroke-linejoin="round"/>
<path d="M63.4727 124.511C63.4727 124.511 66.2433 131.127 67.292 132.206" stroke="black" stroke-width="2" stroke-linecap="round" stroke-linejoin="round"/>
<path d="M72.4346 139.154C72.4346 139.154 75.2353 142.738 76.8544 143.454" stroke="black" stroke-width="2" stroke-linecap="round" stroke-linejoin="round"/>
<path d="M63.4727 103.082C63.4727 103.082 65.1411 129.275 82.8781 140.303" stroke="black" stroke-width="2" stroke-linecap="round" stroke-linejoin="round"/>
<path d="M71.7832 104.378C71.7832 104.378 73.4645 127.229 85.6323 133.064" stroke="black" stroke-width="2" stroke-linecap="round" stroke-linejoin="round"/>
<path d="M103.495 140.552C103.495 140.552 112.195 143.714 125.71 139.943" stroke="black" stroke-width="2" stroke-linecap="round" stroke-linejoin="round"/>
<path d="M101.664 148.011C101.664 148.011 113.071 152.086 129.986 146.222" stroke="black" stroke-width="2" stroke-linecap="round" stroke-linejoin="round"/>
<path d="M114.146 153.444C114.146 153.444 123.264 152.957 130.064 150.81" stroke="black" stroke-width="2" stroke-linecap="round" stroke-linejoin="round"/>
<path d="M102.279 155.862C102.279 155.862 113.141 160.767 130.803 155.289" stroke="white" stroke-width="2" stroke-linecap="round" stroke-linejoin="round"/>
<path d="M96.4834 159.944C96.4834 159.944 107.446 165.456 127.814 160.894" stroke="white" stroke-width="2" stroke-linecap="round" stroke-linejoin="round"/>
<path d="M146.804 79.0337C146.804 79.0337 154.571 91.4966 152.961 101.025" stroke="black" stroke-width="2" stroke-linecap="round" stroke-linejoin="round"/>
<path d="M148.562 69.7969C148.562 69.7969 162.34 84.4584 160.727 101.025" stroke="black" stroke-width="2" stroke-linecap="round" stroke-linejoin="round"/>
<path d="M157.064 71.5559C157.064 71.5559 163.367 82.8454 163.661 86.6572" stroke="black" stroke-width="2" stroke-linecap="round" stroke-linejoin="round"/>
<path d="M157.064 64.55C157.064 64.55 171.868 81.6098 169.67 102.166" stroke="black" stroke-width="2" stroke-linecap="round" stroke-linejoin="round"/>
<path d="M104.443 44.8713C104.443 44.8713 133.759 42.9643 146.07 56.1608" stroke="black" stroke-width="2" stroke-linecap="round" stroke-linejoin="round"/>
<path d="M105.325 50.47C105.325 50.47 109.721 49.2473 117.491 49.8587" stroke="black" stroke-width="2" stroke-linecap="round" stroke-linejoin="round"/>
<path d="M124.524 51.1755C124.524 51.1755 130.827 51.6153 137.715 55.5729" stroke="black" stroke-width="2" stroke-linecap="round" stroke-linejoin="round"/>
<path d="M102.833 57.1882C102.833 57.1882 122.035 53.1447 139.916 64.55" stroke="black" stroke-width="2" stroke-linecap="round" stroke-linejoin="round"/>
</svg>
