<svg width="150" height="150" viewBox="0 0 150 150" fill="none" xmlns="http://www.w3.org/2000/svg">
<path d="M104.19 45.8105V104.19H45.8105V45.8105H104.19Z" fill="white"/>
<path fill-rule="evenodd" clip-rule="evenodd" d="M75 0C86.9699 0 98.2797 2.81014 108.31 7.79004H142.19V41.6699C147.18 51.7099 150 63.04 150 75C150 86.9598 147.17 98.2697 142.19 108.31V142.19H108.31C98.2797 147.18 86.9698 150 75 150C63.03 150 51.7099 147.18 41.6699 142.19H7.79004V108.31C2.81014 98.2797 0 86.9699 0 75C0 63.03 2.80004 51.7099 7.79004 41.6699V7.79004H41.6699C51.7099 2.80004 63.03 0 75 0ZM25.5498 25.5498V124.45H124.45L124.46 124.46V25.5498H25.5498Z" fill="white"/>
</svg>
