<svg width="27" height="29" viewBox="0 0 27 29" fill="none" xmlns="http://www.w3.org/2000/svg">
<g clip-path="url(#clip0_77_22)">
<path d="M7.88845 16.4766L18.1483 0.918579L25.5855 0L26.164 7.12646L12.3307 19.9338C10.8543 18.7771 9.37488 17.6194 7.88745 16.4766H7.88845ZM21.4575 1.30016C20.8389 1.33005 19.4125 1.5303 18.894 1.8272C18.7139 1.92981 18.3795 2.40205 18.2364 2.58637C17.5377 3.48303 16.8821 4.44146 16.2435 5.37897C14.6349 7.73818 13.1195 10.1602 11.567 12.5513C11.533 12.7814 11.8923 13.0564 12.0805 13.16C12.2536 13.2556 12.5019 13.3702 12.6871 13.2477C12.9273 13.0883 13.2416 12.7555 13.4758 12.5572C15.5839 10.7699 17.7249 9.00746 19.7569 7.14041C20.8679 6.11921 22.0881 4.98842 23.031 3.82675C23.3543 3.42823 24.03 2.57441 23.9409 2.06033C23.8038 1.26728 22.0651 1.27127 21.4575 1.30115V1.30016Z" fill="#7CDB79"/>
<path d="M3.63342 28.2946C2.94176 29.1245 1.70657 29.2391 0.872768 28.5507C0.0389666 27.8623 -0.0751432 26.6328 0.616522 25.8029C1.30819 24.973 2.54337 24.8584 3.37618 25.5479C4.20998 26.2363 4.32509 27.4657 3.63342 28.2946Z" fill="#7CDB79"/>
<path d="M11.0296 20.6889L4.0839 27.0991L1.71362 25.1414L6.76348 17.1641L11.0296 20.6889Z" fill="#7CDB79"/>
<path d="M15.5189 24.3962L16.2376 23.5344L17.3527 22.1953L14.9934 22.2571L10.2608 17.3873L4.4843 13.5745L4.10793 11.2571L2.99286 12.5951L2.27417 13.4569L2.42231 15.2084L7.62932 20.5435L13.7622 24.5735L15.5189 24.3962Z" fill="#7CDB79"/>
</g>
<defs>
<clipPath id="clip0_77_22">
<rect width="26" height="29" fill="white" transform="translate(0.164062)"/>
</clipPath>
</defs>
</svg>
