<svg width="52" height="52" viewBox="0 0 52 52" fill="none" xmlns="http://www.w3.org/2000/svg">
<circle cx="25.7537" cy="25.6514" r="25.6514" fill="white"/>
<circle cx="25.7537" cy="25.6514" r="25.6514" fill="white"/>
<path d="M19.4231 13.8013C20.8331 13.8413 22.1837 14.3419 23.2737 15.2319C24.3635 16.1219 25.1334 17.3416 25.4534 18.7114C25.4534 18.7514 25.4839 18.792 25.5139 18.812C25.5438 18.8416 25.5836 18.852 25.6233 18.8521C25.6632 18.8521 25.7037 18.8419 25.7336 18.812C25.7636 18.782 25.7832 18.7514 25.7932 18.7114C26.1232 17.3115 26.9132 16.0711 28.0432 15.1812C29.1731 14.2912 30.5633 13.8014 32.0032 13.8013H37.5637V24.3413L37.5735 24.3521H31.0334C30.8736 24.3521 30.7237 24.4016 30.6038 24.5015C30.4839 24.6014 30.3936 24.7413 30.3635 24.8911C30.3435 24.9811 30.3533 25.0816 30.3733 25.1616C30.3933 25.2516 30.4432 25.3319 30.5032 25.4019C30.5632 25.4719 30.6339 25.5318 30.7239 25.5718C30.8038 25.6116 30.9036 25.6313 30.9934 25.6313H37.5735V37.4819H32.4436C29.2436 37.3719 26.5235 35.5315 25.8235 32.5815C25.8235 32.5417 25.7938 32.5117 25.7639 32.4917C25.7339 32.4717 25.6936 32.4517 25.6536 32.4517C25.6136 32.4517 25.5732 32.4617 25.5432 32.4917C25.5134 32.5118 25.4936 32.5517 25.4836 32.5815C25.1536 33.9815 24.3636 35.2216 23.2336 36.1216C22.1037 37.0116 20.7136 37.5014 19.2737 37.5015H13.9338C13.9531 37.4072 13.9338 25.6313 13.9338 25.6313H20.0432C20.2032 25.6313 20.3539 25.5819 20.4739 25.4819C20.5939 25.3819 20.6734 25.2513 20.7034 25.0913C20.7233 25.0015 20.7135 24.9018 20.6936 24.812C20.6736 24.7221 20.6236 24.6417 20.5637 24.5718C20.5038 24.5019 20.4238 24.4419 20.344 24.4019C20.264 24.3619 20.1635 24.3413 20.0735 24.3413H13.9338V13.8013H19.4231Z" fill="black"/>
</svg>
